<?xml version="1.0" encoding="UTF-8" standalone="no"?>
<svg
   width="64"
   height="64"
   viewBox="0 0 64 64"
   version="1.1"
   id="svg24398"
   sodipodi:docname="adv-3.svg"
   inkscape:version="1.2.1 (9c6d41e, 2022-07-14)"
   xmlns:inkscape="http://www.inkscape.org/namespaces/inkscape"
   xmlns:sodipodi="http://sodipodi.sourceforge.net/DTD/sodipodi-0.dtd"
   xmlns="http://www.w3.org/2000/svg"
   xmlns:svg="http://www.w3.org/2000/svg">
  <sodipodi:namedview
     id="namedview24400"
     pagecolor="#505050"
     bordercolor="#eeeeee"
     borderopacity="1"
     inkscape:showpageshadow="0"
     inkscape:pageopacity="0"
     inkscape:pagecheckerboard="0"
     inkscape:deskcolor="#505050"
     showgrid="false"
     inkscape:zoom="3.6875"
     inkscape:cx="-47.457627"
     inkscape:cy="32"
     inkscape:window-width="1309"
     inkscape:window-height="456"
     inkscape:window-x="0"
     inkscape:window-y="25"
     inkscape:window-maximized="0"
     inkscape:current-layer="Group_6056" />
  <defs
     id="defs24391">
    <linearGradient
       id="linear-gradient"
       x1="0.5"
       x2="0.5"
       y2="1"
       gradientUnits="objectBoundingBox">
      <stop
         offset="0"
         stop-color="#13a9fd"
         id="stop24381" />
      <stop
         offset="1"
         stop-color="#006cff"
         id="stop24383" />
    </linearGradient>
    <linearGradient
       id="linear-gradient-4"
       x1="0.5"
       x2="0.5"
       y2="1"
       gradientUnits="objectBoundingBox">
      <stop
         offset="0"
         stop-color="#13a9fd"
         id="stop24386" />
      <stop
         offset="1"
         stop-color="#0073c6"
         id="stop24388" />
    </linearGradient>
  </defs>
  <g
     id="Group_7129"
     data-name="Group 7129"
     transform="translate(-88 -1586)">
    <g
       id="Group_6056"
       data-name="Group 6056"
       transform="translate(88 1586)" />
    <path
       id="Union_49"
       data-name="Union 49"
       d="M18.958,26V10.833h5.958V26Zm-8.667,0V15.709H16.25V26ZM1.625,26V11.375H7.041V26Zm9.522-12.236a4.077,4.077,0,1,1,1.582.319A4.051,4.051,0,0,1,11.147,13.764Zm.287-2.858a.23.23,0,0,0-.043.13,1.086,1.086,0,0,0,.936.951V12.4a.176.176,0,0,0,.173.173h.476a.175.175,0,0,0,.172-.173v-.432a1.248,1.248,0,0,0,.995-1.067c0-.032,0-.063,0-.094v-.02a1.253,1.253,0,0,0-.321-.822,1.215,1.215,0,0,0-.908-.4h-.361a.394.394,0,0,1-.3-.13.419.419,0,0,1-.1-.317.363.363,0,0,1,.141-.255.467.467,0,0,1,.292-.1h.432a.263.263,0,0,1,.259.2.169.169,0,0,0,.159.13h.49a.182.182,0,0,0,.129-.058A.232.232,0,0,0,14.1,8.9a1.088,1.088,0,0,0-.937-.951v-.4a.175.175,0,0,0-.173-.173h-.475a.176.176,0,0,0-.173.173v.418a1.2,1.2,0,0,0-1,1.172h0a1.131,1.131,0,0,0,.008.139,1.273,1.273,0,0,0,1.268,1.1h.317a.4.4,0,0,1,.3.13.422.422,0,0,1,.1.317.369.369,0,0,1-.141.256.47.47,0,0,1-.292.1h-.432a.263.263,0,0,1-.259-.2.169.169,0,0,0-.159-.13h-.49A.184.184,0,0,0,11.435,10.906ZM2.646,8.868a4.336,4.336,0,0,1,0-7.986A4.333,4.333,0,0,1,7.4,7.939a4.338,4.338,0,0,1-4.751.929ZM2.97,5.849a.25.25,0,0,0-.047.139,1.168,1.168,0,0,0,1.005,1.02v.448a.188.188,0,0,0,.186.185h.51a.188.188,0,0,0,.186-.185V6.994A1.34,1.34,0,0,0,5.877,5.849a1.335,1.335,0,0,0-.34-1.005,1.3,1.3,0,0,0-.974-.433H4.176a.425.425,0,0,1-.325-.139.453.453,0,0,1-.108-.34.392.392,0,0,1,.151-.274.5.5,0,0,1,.312-.112H4.67a.281.281,0,0,1,.278.216.182.182,0,0,0,.171.139h.526a.192.192,0,0,0,.138-.062A.247.247,0,0,0,5.83,3.7a1.167,1.167,0,0,0-1-1.02V2.247a.188.188,0,0,0-.185-.185H4.13a.188.188,0,0,0-.185.185V2.7A1.279,1.279,0,0,0,2.877,4.1a1.364,1.364,0,0,0,1.36,1.175h.34a.423.423,0,0,1,.325.14.451.451,0,0,1,.108.34.4.4,0,0,1-.151.275.506.506,0,0,1-.314.112H4.083A.283.283,0,0,1,3.8,5.927a.181.181,0,0,0-.17-.139H3.109A.2.2,0,0,0,2.97,5.849ZM19.98,8.326A4.332,4.332,0,0,1,18.6,1.27a4.334,4.334,0,0,1,7.057,4.75A4.339,4.339,0,0,1,19.98,8.326ZM20.3,5.308a.242.242,0,0,0-.047.139,1.167,1.167,0,0,0,1,1.021v.448a.188.188,0,0,0,.186.185h.51a.188.188,0,0,0,.185-.185V6.452A1.338,1.338,0,0,0,23.21,5.307a1.334,1.334,0,0,0-.34-1A1.3,1.3,0,0,0,21.9,3.87h-.386a.422.422,0,0,1-.324-.139.449.449,0,0,1-.108-.34.393.393,0,0,1,.15-.274A.5.5,0,0,1,21.54,3H22a.283.283,0,0,1,.279.217.179.179,0,0,0,.17.139h.526a.2.2,0,0,0,.139-.062.255.255,0,0,0,.047-.139,1.166,1.166,0,0,0-1.005-1.02V1.7a.188.188,0,0,0-.185-.186h-.511a.188.188,0,0,0-.185.186v.449A1.281,1.281,0,0,0,20.21,3.561a1.365,1.365,0,0,0,1.361,1.175h.34a.423.423,0,0,1,.324.139.453.453,0,0,1,.108.341.394.394,0,0,1-.151.275.5.5,0,0,1-.313.112h-.464a.283.283,0,0,1-.279-.216.18.18,0,0,0-.17-.139h-.526A.2.2,0,0,0,20.3,5.308Z"
       transform="translate(107 1605)"
       fill="url(#linear-gradient)" />
  </g>
</svg>
