<?xml version="1.0" encoding="UTF-8" standalone="no"?>
<svg
   width="64"
   height="64"
   viewBox="0 0 64 64"
   version="1.1"
   id="svg496"
   sodipodi:docname="adv-5.svg"
   inkscape:version="1.2.1 (9c6d41e, 2022-07-14)"
   xmlns:inkscape="http://www.inkscape.org/namespaces/inkscape"
   xmlns:sodipodi="http://sodipodi.sourceforge.net/DTD/sodipodi-0.dtd"
   xmlns="http://www.w3.org/2000/svg"
   xmlns:svg="http://www.w3.org/2000/svg">
  <sodipodi:namedview
     id="namedview498"
     pagecolor="#505050"
     bordercolor="#eeeeee"
     borderopacity="1"
     inkscape:showpageshadow="0"
     inkscape:pageopacity="0"
     inkscape:pagecheckerboard="0"
     inkscape:deskcolor="#505050"
     showgrid="false"
     inkscape:zoom="3.6875"
     inkscape:cx="-7.5932203"
     inkscape:cy="32"
     inkscape:window-width="1309"
     inkscape:window-height="456"
     inkscape:window-x="255"
     inkscape:window-y="249"
     inkscape:window-maximized="0"
     inkscape:current-layer="Group_7131" />
  <defs
     id="defs489">
    <linearGradient
       id="linear-gradient"
       x1="0.5"
       x2="0.5"
       y2="1"
       gradientUnits="objectBoundingBox">
      <stop
         offset="0"
         stop-color="#13a9fd"
         id="stop479" />
      <stop
         offset="1"
         stop-color="#006cff"
         id="stop481" />
    </linearGradient>
    <linearGradient
       id="linear-gradient-2"
       x1="0.5"
       x2="0.5"
       y2="1"
       gradientUnits="objectBoundingBox">
      <stop
         offset="0"
         stop-color="#13a9fd"
         id="stop484" />
      <stop
         offset="1"
         stop-color="#0073c6"
         id="stop486" />
    </linearGradient>
  </defs>
  <g
     id="Group_7131"
     data-name="Group 7131"
     transform="translate(-88 -1837)">
    <path
       id="Union_51"
       data-name="Union 51"
       d="M32.731,28.833l-4.338-4.662a.522.522,0,0,1,.387-.87h1.948V16.483a.518.518,0,0,1,.155-.369.528.528,0,0,1,.373-.153h3.723a.529.529,0,0,1,.373.153.518.518,0,0,1,.154.369V23.3h1.967a.527.527,0,0,1,.474.313l.052.209a.517.517,0,0,1-.141.348L33.5,28.833a.53.53,0,0,1-.773,0Zm-28.9-5.709C.666,21.968,0,20.48,0,19.436V15.718a10.283,10.283,0,0,0,3.227,1.787A24.239,24.239,0,0,0,9.633,18.77a11.393,11.393,0,0,0,4.5,5.525c-.694.048-1.4.072-2.124.072A24.714,24.714,0,0,1,3.835,23.124Zm12.542.4a9.566,9.566,0,0,1-5.1-5.046,9.432,9.432,0,0,1,0-7.382,9.566,9.566,0,0,1,5.1-5.046,9.627,9.627,0,0,1,10.5,2.032A9.443,9.443,0,0,1,28.926,11.1a9.432,9.432,0,0,1,0,7.382A9.442,9.442,0,0,1,26.874,21.5a9.658,9.658,0,0,1-10.5,2.032Zm.7-6.535a.543.543,0,0,0-.1.3A2.567,2.567,0,0,0,19.2,19.532v.982a.414.414,0,0,0,.41.406h1.129a.414.414,0,0,0,.41-.406V19.5a2.943,2.943,0,0,0,2.359-2.506A2.911,2.911,0,0,0,20.6,13.842h-.855a.939.939,0,0,1-.718-.3.98.98,0,0,1-.24-.745.86.86,0,0,1,.334-.6,1.116,1.116,0,0,1,.692-.246h1.026a.624.624,0,0,1,.615.474.4.4,0,0,0,.376.3h1.162a.434.434,0,0,0,.308-.136.554.554,0,0,0,.1-.305,2.568,2.568,0,0,0-2.223-2.234V9.1a.414.414,0,0,0-.41-.406H19.644a.414.414,0,0,0-.411.406v.982a2.805,2.805,0,0,0-2.377,2.75v.021a2.9,2.9,0,0,0,.018.311,3.01,3.01,0,0,0,3.009,2.574h.752a.942.942,0,0,1,.719.3.983.983,0,0,1,.24.745.859.859,0,0,1-.334.6,1.118,1.118,0,0,1-.692.245H19.541a.624.624,0,0,1-.615-.474.4.4,0,0,0-.377-.305H17.386A.437.437,0,0,0,17.079,16.993ZM3.835,15.872C.665,14.715,0,13.228,0,12.183V8.466a10.272,10.272,0,0,0,3.227,1.787A24.069,24.069,0,0,0,9.4,11.5a11.232,11.232,0,0,0-.279,5.482h0A21.657,21.657,0,0,1,3.835,15.872Zm0-7.252h0C.666,7.463,0,5.976,0,4.932S.666,2.4,3.835,1.244A24.72,24.72,0,0,1,12.009,0a24.648,24.648,0,0,1,8.175,1.246c2.337.85,3.311,1.883,3.664,2.785A11.482,11.482,0,0,0,10.076,9.8,22.792,22.792,0,0,1,3.835,8.62Z"
       transform="translate(101 1855)"
       fill="url(#linear-gradient)" />
  </g>
</svg>
