<svg xmlns="http://www.w3.org/2000/svg" width="115" height="40" viewBox="0 0 115 40">
  <g id="Group_7601" data-name="Group 7601" transform="translate(0 0)">
    <path id="Path_6178" data-name="Path 6178" d="M0,40.943v15.3l.124.071,2.91,1.68.124.072.123.071.124.072,2.91,1.68.123.071.124.071.123.071L9.6,61.78l.124.072.123.071.123.071,2.91,1.68.124.072.123.071.124.072,2.91,1.68V50.843l-2.91,1.68-.124.071v7.72L13,60.243l-.124-.071-.123-.072-2.91-1.68-.124-.071L9.6,58.277l-.123-.071-2.91-1.68-.124-.071-.123-.072-.124-.071-2.91-1.68-.123-.071-.124-.071V42.838l.124.072.123.071.123.071,2.91,1.68.123.071.124.072.123.071,2.91,1.68.124.071.124-.071,2.91-1.68-2.91-1.68-.123-.071L9.6,43.123l-.123-.071-2.91-1.68L6.439,41.3l-.124-.071-.123-.071-2.91-1.681-.123-.071-.124-.072-.123-.071L0,37.583Z" transform="translate(0 -25.569)" fill="#006cff"/>
    <path id="Path_6179" data-name="Path 6179" d="M21.184,0,21.06.071l-2.91,1.68-.124.071-.123.071-.124.072-2.91,1.68-.123.071-.123.071-.124.071-2.91,1.68-.123.071-.124.072-.123.071-2.91,1.68-.124.071-.123.071-.124.071-2.91,1.68,2.91,1.68.124.072.123.071.124.071,2.91,1.68.124.071.123.071.123.071L14.5,14.8l.124.072.123.071.124.071,2.91,1.68v-3.5l-.123-.071-2.91-1.68-.123-.071-.124-.072-.123-.071-2.91-1.68-.124-.071L11.217,9.4l-.124-.072.124-.071.123-.071.124-.072,2.91-1.68.123-.071.124-.071.123-.072,2.91-1.68.124-.071L17.9,5.4l.124-.071,2.91-1.68.123-.072.123-.071.124.072.123.071,2.91,1.68.123.071.124.071.123.071,2.91,1.68.124.072.123.071.123.071L30.9,9.114l.123.071.124.071.123.071L31.15,9.4l-.124.071-.123.071-2.911,1.68-.123.071-.123.071-.124.072-2.91,1.68-.124.071v3.5l2.91-1.68.123-.071.124-.072.123-.071,2.91-1.68.124-.072.123-.071.124-.071,2.91-1.68.123-.071.124-.071.124-.072,2.91-1.68-2.91-1.68-.123-.071-.124-.071-.123-.071-2.91-1.68-.124-.071L30.9,5.611l-.124-.072-2.91-1.68-.123-.071-.124-.071L27.5,3.646l-2.91-1.68-.124-.071-.123-.072-.123-.071L21.307.071Z" transform="translate(-3.42)" fill="#006cff"/>
    <path id="Path_6180" data-name="Path 6180" d="M73.844,39.264l-.123.071-.123.072-.124.071-2.91,1.68-.123.071-.124.072-.123.071-2.91,1.68-.124.071-.123.072-.124.071L64,44.947l2.91,1.68.124.071.123-.071,2.911-1.68.123-.071.123-.071.124-.071,2.91-1.68.123-.071.124-.071.123-.072V54.489l-.123.071-.124.071-2.91,1.68-.123.071-.124.071-.123.071-2.91,1.68-.124.071-.123.071-.124.072L64,60.1l-.123.072-.124.071-.123.071v-7.72l-.123-.071-2.91-1.68V65.569l2.91-1.68.124-.072.123-.071.124-.071,2.91-1.68.123-.071.124-.072.123-.071L70.07,60.1l.123-.071.123-.071.124-.071,2.91-1.68.123-.071.124-.072.123-.071,2.91-1.68.123-.071V37.584Z" transform="translate(-41.32 -25.57)" fill="#006cff"/>
    <rect id="Rectangle_5570" data-name="Rectangle 5570" width="8.256" height="2.523" transform="translate(91.336 15.797)" fill="#fff"/>
    <path id="Path_6181" data-name="Path 6181" d="M239.313,51.877h3.2v7.995h2.755V51.877h3.2V49.123h-9.15Z" transform="translate(-163.158 -33.421)" fill="#fff"/>
    <path id="Path_6182" data-name="Path 6182" d="M289.981,65.625V64.314h5.6V61.628h-8.351V68.38h8.351V65.694h-5.6Z" transform="translate(-195.89 -41.928)" fill="#fff"/>
    <path id="Path_6183" data-name="Path 6183" d="M328.855,74.094h3.114l1.184-1.808-1.532-2.259Z" transform="translate(-224.211 -47.642)" fill="#fff"/>
    <path id="Path_6184" data-name="Path 6184" d="M328.909,49.123l7.312,10.749h3.027l-5.2-7.676v0l-.186-.262-1.9-2.812Z" transform="translate(-224.248 -33.421)" fill="#fff"/>
    <path id="Path_6185" data-name="Path 6185" d="M352.167,49.42H349.3l-1.141,1.669,1.459,2.149Z" transform="translate(-237.342 -33.623)" fill="#fff"/>
    <path id="Path_6186" data-name="Path 6186" d="M150.543,49.123l-4.2,10.749h2.947l2.831-7.671,1.784,4.853h-1.855l-1.026,2.818H157.9l-4.2-10.749Z" transform="translate(-99.779 -33.421)" fill="#fff"/>
    <path id="Path_6187" data-name="Path 6187" d="M207.673,57.122h-.9v0h-3.2V49.124h-2.755V59.873h7.764Z" transform="translate(-136.914 -33.421)" fill="#fff"/>
  </g>
</svg>
