<svg xmlns="http://www.w3.org/2000/svg" xmlns:xlink="http://www.w3.org/1999/xlink" width="32" height="32" viewBox="0 0 32 32">
  <defs>
    <linearGradient id="linear-gradient" x1="0.5" x2="0.5" y2="1" gradientUnits="objectBoundingBox">
      <stop offset="0" stop-color="#13a9fd"/>
      <stop offset="1" stop-color="#006cff"/>
    </linearGradient>
  </defs>
  <g id="Group_7818" data-name="Group 7818" transform="translate(-1783 -1687)">
    <path id="Path_5372" data-name="Path 5372" d="M127.472,75.6l2,.4.8,2-1.2,1.733A2.018,2.018,0,0,0,129.338,82L132,84.668a1.989,1.989,0,0,0,2.267.267l1.733-1.2a12.508,12.508,0,0,0,2,.8l.4,2.133A1.727,1.727,0,0,0,140.138,88h3.733a1.727,1.727,0,0,0,1.733-1.333l.4-2.133a6.292,6.292,0,0,0,2-.8l1.733,1.2A1.835,1.835,0,0,0,152,84.668L154.672,82a1.989,1.989,0,0,0,.267-2.267L153.738,78l.8-2,2-.4A1.846,1.846,0,0,0,158,73.868V70.134a1.717,1.717,0,0,0-1.467-1.733l-2-.4-.8-2,1.2-1.733A2.045,2.045,0,0,0,154.672,62L152,59.334a1.989,1.989,0,0,0-2.267-.267L148,60.268l-2-.8-.4-2A1.845,1.845,0,0,0,143.872,56h-3.733a1.717,1.717,0,0,0-1.733,1.467l-.4,2-2,.8L134.272,59.2a1.647,1.647,0,0,0-2.267.267l-2.667,2.667a1.811,1.811,0,0,0-.267,2.133l1.2,1.733-.8,2-2,.4A1.818,1.818,0,0,0,126,70.134v3.733a1.716,1.716,0,0,0,1.467,1.733ZM142,62.535a9.468,9.468,0,1,1,0,18.934,9.467,9.467,0,0,1,0-18.934Z" transform="translate(1656.995 1630.999)" fill="url(#linear-gradient)"/>
    <path id="Path_5375" data-name="Path 5375" d="M93.125,143.6a6.486,6.486,0,1,1-6.486,6.486A6.486,6.486,0,0,1,93.125,143.6Zm-1.808,9.33a3.282,3.282,0,0,0,.77.577,2.079,2.079,0,0,0,.539.186l.011.449a.509.509,0,0,0,1.018-.024l-.01-.435a2.322,2.322,0,0,0,1.053-.532,1.947,1.947,0,0,0,0-2.961,2.359,2.359,0,0,0-1.572-.588,1.337,1.337,0,0,1-.894-.324.969.969,0,0,1-.339-.722h0a.97.97,0,0,1,.341-.722,1.336,1.336,0,0,1,.894-.324v0a1.852,1.852,0,0,1,.689.19,1.124,1.124,0,0,1,.433.3.509.509,0,0,0,.85-.559,2.081,2.081,0,0,0-.856-.667,3.316,3.316,0,0,0-.615-.215l-.013-.53a.509.509,0,1,0-1.018.024l.012.492a2.323,2.323,0,0,0-1.054.532,1.978,1.978,0,0,0-.68,1.48h0a1.979,1.979,0,0,0,.682,1.48,2.359,2.359,0,0,0,1.572.588,1.337,1.337,0,0,1,.894.324.937.937,0,0,1,0,1.443,1.336,1.336,0,0,1-.894.324,1.238,1.238,0,0,1-.579-.12,2.394,2.394,0,0,1-.53-.409.51.51,0,0,0-.7.743Z" transform="translate(1705.901 1552.944)" fill-rule="evenodd" fill="url(#linear-gradient)"/>
  </g>
</svg>
