<svg width="106" height="37" viewBox="0 0 106 37" fill="none" xmlns="http://www.w3.org/2000/svg">
	<g clip-path="url(#clip0_5_1097)">
		<path d="M0 14.2783V28.3956L0.112397 28.4613L2.7624 30.0116L2.87571 30.0773L2.9881 30.143L3.10141 30.2086L5.75141 31.7589L5.86381 31.8246L5.97621 31.8903L6.0886 31.956L8.7386 33.5063L8.85191 33.5719L8.96431 33.6376L9.07671 33.7033L11.7267 35.2536L11.8391 35.3193L11.9515 35.3849L12.0648 35.4506L14.7148 37.0009V23.4117L12.0648 24.962L11.9515 25.0277V32.1502L11.8391 32.0845L11.7267 32.0189L11.6143 31.9532L8.96431 30.4029L8.85922 30.3381L8.74683 30.2725L8.63443 30.2068L5.98443 28.6565L5.87204 28.5908L5.75964 28.5251L5.64724 28.4595L2.99724 26.9092L2.88485 26.8435L2.77245 26.7778V16.0256L2.88485 16.0913L2.99724 16.157L3.10964 16.2226L5.75964 17.7729L5.87204 17.8386L5.98535 17.9043L6.09774 17.97L8.74774 19.5203L8.86014 19.5859L8.97254 19.5203L11.6225 17.97L8.97254 16.4197L8.86014 16.354L8.74683 16.2883L8.63443 16.2226L5.98443 14.6723L5.87204 14.6067L5.75872 14.541L5.64633 14.4753L2.99633 12.925L2.87845 12.8556L2.76514 12.79L2.65 12.728L0 11.1768V14.2783Z" fill="white" />
		<path d="M16.1924 -0.000946045L16.08 0.064729L13.4245 1.61595L13.3121 1.68163L13.1997 1.7473L13.0864 1.81298L10.4364 3.36328L10.324 3.42895L10.2116 3.49463L10.0992 3.5603L7.44923 5.1106L7.33683 5.17628L7.22444 5.24195L7.11204 5.30763L4.46204 6.85793L4.34873 6.9236L4.23633 6.98928L4.12302 7.05495L1.47302 8.60525L4.12302 10.1556L4.23633 10.2212L4.34873 10.2869L4.46204 10.3526L7.11204 11.9029L7.22535 11.9686L7.33775 12.0342L7.45014 12.0999L10.1001 13.6502L10.2135 13.7159L10.3259 13.7816L10.4382 13.8472L13.0882 15.3975V12.1684L12.9759 12.1027L10.3259 10.5524L10.2135 10.4867L10.1001 10.421L9.98775 10.3554L7.33775 8.80505L7.22535 8.73938L7.11295 8.6737L7.00056 8.60803L7.11295 8.54235L7.22535 8.47668L7.33775 8.411L9.98775 6.8607L10.1001 6.79503L10.2135 6.72935L10.3259 6.66368L12.9759 5.11338L13.0882 5.0477L13.2006 4.98203L13.313 4.91635L15.963 3.36605L16.0754 3.30038L16.1878 3.2347L16.3011 3.30038L16.4135 3.36605L19.0635 4.91635L19.1759 4.98203L19.2883 5.0477L19.4007 5.11338L22.0507 6.66368L22.164 6.72935L22.2764 6.79503L22.3888 6.8607L25.0388 8.411L25.1512 8.47668L25.2636 8.54235L25.376 8.60803L25.2636 8.6737L25.1512 8.73938L25.0388 8.80505L22.3888 10.3554L22.2764 10.421L22.164 10.4867L22.0507 10.5524L19.4007 12.1027L19.2883 12.1684V15.4003L21.9383 13.85L22.0507 13.7843L22.164 13.7187L22.2764 13.653L24.9264 12.1027L25.0388 12.037L25.1512 11.9713L25.2645 11.9057L27.9145 10.3554L28.0269 10.2897L28.1393 10.224L28.2517 10.1583L30.9017 8.60803L28.2517 7.05773L28.1393 6.99205L28.0452 6.92453L27.9328 6.85885L25.2764 5.30855L25.164 5.24288L25.0516 5.17905L24.9383 5.11153L22.2883 3.56123L22.1759 3.49555L22.0626 3.42988L21.9502 3.3642L19.3002 1.8139L19.1814 1.7473L19.069 1.68163L18.9566 1.61595L16.3048 0.0656539L16.1924 -0.000946045Z" fill="white" />
		<path d="M29.8755 12.728L29.7631 12.7937L29.6507 12.8594L29.5383 12.925L26.8884 14.4753L26.776 14.541L26.6626 14.6067L26.5503 14.6724L23.9002 16.2226L23.7878 16.2883L23.6754 16.354L23.5631 16.4197L20.9131 17.97L23.5631 19.5203L23.6754 19.586L23.7878 19.5203L26.4379 17.97L26.5503 17.9043L26.6626 17.8386L26.775 17.773L29.425 16.2226L29.5374 16.157L29.6498 16.0913L29.7622 16.0256V26.7751L29.6498 26.8407L29.5365 26.9064L26.8865 28.4567L26.7741 28.5224L26.6617 28.5881L26.5493 28.6537L23.8993 30.204L23.786 30.2697L23.6736 30.3354L23.5612 30.4011L20.9112 31.9514L20.7988 32.017L20.6864 32.0827L20.574 32.1484V25.0259L20.4616 24.9602L17.8116 23.4099V36.9963L20.4616 35.446L20.574 35.3803L20.6864 35.3147L20.7988 35.249L23.4488 33.6987L23.5612 33.633L23.6736 33.5673L23.786 33.5016L26.436 31.9514L26.5484 31.8857L26.6608 31.82L26.7732 31.7543L29.4232 30.204L29.5356 30.1384L29.648 30.0727L29.7604 30.007L32.4104 28.4567L32.5228 28.391V11.1777L29.8755 12.728Z" fill="white" />
		<path d="M91.955 14.615H84.4299V16.9423H91.955V14.615Z" fill="white" />
		<path d="M70.2625 17.0792H73.1775V24.4561H75.6858V17.0792H78.5999V14.5382H70.2588L70.2625 17.0792Z" fill="white" />
		<path d="M86.9419 21.9197V20.7098H92.0427V18.2318H84.4308V24.4616H92.0427V21.9836H86.9419V21.9197Z" fill="white" />
		<path d="M96.5596 24.4635H99.3987L100.478 22.7985L99.0771 20.7117L96.5596 24.4635Z" fill="white" />
		<path d="M96.576 14.5382L103.241 24.4561H106.001L101.26 17.3733L101.09 17.131L99.3595 14.541L96.576 14.5382Z" fill="white" />
		<path d="M105.84 14.6169H103.224L102.183 16.157L103.513 18.1402L105.84 14.6169Z" fill="white" />
		<path d="M46.799 14.5382L42.972 24.4561H45.6586L48.2382 17.378L49.8639 21.8559H48.1733L47.2385 24.4561H53.5026L49.6756 14.5382H46.799Z" fill="white" />
		<path d="M65.1991 21.9179H64.3831H61.4681V14.541H58.957V24.4588H66.0343L65.1991 21.9179Z" fill="white" />
	</g>
	<defs>
		<clipPath id="clip0_5_1097">
			<rect width="106" height="37" fill="white" />
		</clipPath>
	</defs>
</svg>
