<svg xmlns="http://www.w3.org/2000/svg" width="32" height="32" viewBox="0 0 32 32">
  <g id="Group_6833" data-name="Group 6833" transform="translate(-663 -2740)">
    <circle id="Ellipse_1634" data-name="Ellipse 1634" cx="16" cy="16" r="16" transform="translate(663 2740)" fill="#006cff" opacity="0.16"/>
    <path id="Subtraction_3" data-name="Subtraction 3" d="M7.781,16a26.083,26.083,0,0,1-4.445-.236A4,4,0,0,1,.15,12.274C-.05,11.006-.1,4.682.3,3.29A4.078,4.078,0,0,1,3.788.18,30.425,30.425,0,0,1,7.8,0C9.173,0,10.706.035,11.7.09a4.419,4.419,0,0,1,2.92,1.2A4.223,4.223,0,0,1,15.9,4.017c.121,1.275.193,7.223-.175,8.6a4.091,4.091,0,0,1-3.532,3.2A39.442,39.442,0,0,1,7.781,16ZM8.014,5.087A2.945,2.945,0,0,0,5.079,8a2.89,2.89,0,0,0,2.894,2.921,2.95,2.95,0,0,0,2.943-2.917A2.893,2.893,0,0,0,8.022,5.087ZM11.63,3.3A1.062,1.062,0,1,0,12.694,4.37a1.053,1.053,0,0,0-.307-.755,1.042,1.042,0,0,0-.744-.31ZM7.979,9.891H7.962A1.872,1.872,0,0,1,6.107,7.985a1.911,1.911,0,0,1,1.9-1.869h.016A1.869,1.869,0,0,1,9.883,8.022,1.911,1.911,0,0,1,7.979,9.891Z" transform="translate(671 2748)" fill="#006cff"/>
  </g>
</svg>
