<svg id="Group_7177" data-name="Group 7177" xmlns="http://www.w3.org/2000/svg" xmlns:xlink="http://www.w3.org/1999/xlink" width="100" height="64" viewBox="0 0 100 64">
  <defs>
    <clipPath id="clip-path">
      <rect id="Rectangle_5358" data-name="Rectangle 5358" width="100" height="64" fill="#82879b"/>
    </clipPath>
  </defs>
  <g id="Group_6957" data-name="Group 6957" clip-path="url(#clip-path)">
    <path id="Path_5715" data-name="Path 5715" d="M1877.635,472.05c.206-.743.4-1.439.591-2.135q.263-.945.528-1.89c.214-.756.432-1.511.647-2.266.159-.56.318-1.119.471-1.68.2-.722.384-1.447.582-2.169q.345-1.256.7-2.509c.313-1.1.638-2.192.945-3.291.275-.986.531-1.977.8-2.965.167-.62.321-1.243.515-1.854a.479.479,0,0,1,.361-.257c1.439-.018,2.878-.009,4.317-.014a.305.305,0,0,1,.346.269c.222.838.46,1.671.694,2.506.334,1.19.677,2.378,1,3.571.314,1.147.611,2.3.918,3.447.351,1.311.7,2.622,1.061,3.93.213.768.463,1.526.678,2.293.221.789.417,1.586.63,2.377.231.858.469,1.715.719,2.623-.157.015-.267.035-.377.035-1.035,0-2.07-.011-3.1.008-.327.006-.423-.15-.489-.429-.221-.937-.462-1.869-.692-2.8a8.5,8.5,0,0,1-.223-1.006c-.033-.281-.174-.319-.406-.318-1.32.006-2.64,0-3.96,0-.607,0-1.214.022-1.819-.01-.327-.017-.439.136-.508.406-.315,1.233-.639,2.463-.948,3.7a.521.521,0,0,1-.614.463c-.986-.03-1.974-.01-2.961-.011-.125,0-.25-.012-.4-.02m8.393-16.906-.1,0-2.376,9.045a2.242,2.242,0,0,0,.33.059c1.355,0,2.711,0,4.066.007.294,0,.35-.134.294-.38-.13-.569-.255-1.14-.4-1.707-.256-1.025-.526-2.046-.782-3.07-.271-1.082-.53-2.167-.8-3.249-.06-.24-.152-.471-.23-.707" transform="translate(-1815.297 -435.911)" fill="#82879b"/>
    <path id="Path_5716" data-name="Path 5716" d="M2364.707,464.7a8.8,8.8,0,0,1-3.973-.966,6.619,6.619,0,0,1-2.5-2.057c-.345-.494-.686-.993-.993-1.511-.215-.363-.171-.477.211-.653.845-.391,1.7-.757,2.55-1.142.2-.093.312,0,.406.161.175.3.345.6.523.892a4.208,4.208,0,0,0,3.98,2.126,4.023,4.023,0,0,0,2.308-.678,2.137,2.137,0,0,0,.907-1.56,2.5,2.5,0,0,0-.287-1.761,3.764,3.764,0,0,0-1.378-1.246c-.808-.44-1.653-.814-2.492-1.193s-1.709-.688-2.528-1.1a6.753,6.753,0,0,1-3.422-3.139,3.7,3.7,0,0,1-.321-1.133,6.074,6.074,0,0,1,.46-3.285,5.307,5.307,0,0,1,1.523-1.952,5.721,5.721,0,0,1,2.29-1.161,8.6,8.6,0,0,1,1.354-.263,12.17,12.17,0,0,1,2.23.025,7.351,7.351,0,0,1,2.7.921,7.556,7.556,0,0,1,2.9,3.056,1.871,1.871,0,0,1,.2.494.3.3,0,0,1-.124.259c-1,.319-2.008.617-3.01.93-.26.081-.349,0-.467-.253a3.788,3.788,0,0,0-3.815-2.366,3.646,3.646,0,0,0-1.655.462,1.948,1.948,0,0,0-.963,1.469,2.217,2.217,0,0,0,1.442,2.388c.921.5,1.9.893,2.861,1.319.767.34,1.564.618,2.308,1a10.353,10.353,0,0,1,1.775,1.158,10.15,10.15,0,0,1,1.292,1.358,4.068,4.068,0,0,1,.731,1.758,6.926,6.926,0,0,1-.2,3.473,5.035,5.035,0,0,1-2.087,2.921,8.9,8.9,0,0,1-4.729,1.25" transform="translate(-2278.853 -428.2)" fill="#82879b"/>
    <path id="Path_5717" data-name="Path 5717" d="M1748.3,462.323q0,5.021,0,10.042c0,.484,0,.486-.494.486-.916,0-1.832,0-2.748,0-.639,0-.607.082-.608-.631q0-3.113,0-6.227,0-6.821,0-13.642c0-.518,0-.519.5-.52h2.855c.493,0,.494,0,.494.485q0,5,0,10.006" transform="translate(-1686.529 -436.695)" fill="#82879b"/>
    <path id="Path_5718" data-name="Path 5718" d="M276.789,198.524a29.535,29.535,0,0,1,.055,7.83c-.173,1.4-.34,2.8-.6,4.183a31.532,31.532,0,0,1-.879,3.386,32.54,32.54,0,0,1-1.138,3.135c-.448,1.053-.978,2.071-1.5,3.091a19.848,19.848,0,0,1-2.7,3.981,33.867,33.867,0,0,1-2.358,2.584c-.886.829-1.875,1.549-2.839,2.29a16.192,16.192,0,0,1-1.752,1.208c-.884.511-1.8.966-2.714,1.424q-.888.446-1.807.826a.78.78,0,0,1-.567.007c-.448-.212-.87-.481-1.3-.727-.846-.483-1.7-.954-2.534-1.453-.518-.309-1.025-.643-1.513-1-.709-.516-1.427-1.027-2.087-1.6-.79-.69-1.551-1.419-2.273-2.181a25.924,25.924,0,0,1-2.112-2.45c-.762-1.037-1.445-2.136-2.109-3.241a22.829,22.829,0,0,1-1.36-2.583c-.467-1.064-.848-2.167-1.24-3.263a20.78,20.78,0,0,1-.724-2.277,36.934,36.934,0,0,1-.806-4.072,34.152,34.152,0,0,1-.186-7.819c.039-.345.071-.692.086-1.039.009-.225.114-.287.317-.275a18.587,18.587,0,0,0,5.962-.591,28.623,28.623,0,0,0,2.819-.828,29.941,29.941,0,0,0,3.357-1.514,13.539,13.539,0,0,0,2.9-2.025c.68-.636,1.382-1.249,2.044-1.9.389-.385.717-.833,1.06-1.238,4.943,5.547,10.963,8.583,18.5,8.136M275.18,200.4c-.786.3-1.5.554-2.189.853-.954.412-1.9.839-2.833,1.3-.656.326-1.287.707-1.912,1.091a27.582,27.582,0,0,0-2.343,1.519c-1.039.795-2.032,1.653-3.018,2.515a24.253,24.253,0,0,0-3.454,3.8c-.756,1.014-1.442,2.086-2.094,3.171a28.3,28.3,0,0,0-1.43,2.739c-.491,1.066-.924,2.161-1.355,3.254a15.048,15.048,0,0,0-.517,1.6,33.6,33.6,0,0,0-.929,4.558.786.786,0,0,0,.24.729,4.287,4.287,0,0,0,.6.5c.822.559,1.632,1.14,2.486,1.645a15.22,15.22,0,0,0,1.775.8.383.383,0,0,0,.273.006c.584-.252,1.168-.5,1.739-.783.457-.223.9-.471,1.341-.733.781-.47,1.583-.913,2.316-1.451a23.015,23.015,0,0,0,2.472-2.05,34.429,34.429,0,0,0,2.864-3.1,25.645,25.645,0,0,0,1.971-3.006,28.4,28.4,0,0,0,1.4-2.726,21.789,21.789,0,0,0,.835-2.275c.279-.86.559-1.724.756-2.6.282-1.256.5-2.527.725-3.8a29.447,29.447,0,0,0,.4-5.838c-.014-.545-.074-1.088-.119-1.716m-30.107,2.541a3.9,3.9,0,0,1,.854-1.221,4.155,4.155,0,0,1,2.7-1.064,2.7,2.7,0,0,0,.774-.247,4.222,4.222,0,0,0,.361-.225,9.559,9.559,0,0,1,2.893-1.1,18.609,18.609,0,0,1,2.467-.307,11.056,11.056,0,0,1,4.483.977,4.4,4.4,0,0,1,.58.349l-1.778.495c.988.262,1.959.506,2.921.779A7.919,7.919,0,0,1,264,202.824l-.811.072,2.113,1.089c.768-.4,1.545-.841,2.346-1.227,1-.48,2-.96,3.025-1.363,1.154-.453,2.34-.822,3.514-1.221a2.383,2.383,0,0,1,.349-.05c.1-.018.2-.046.294-.069a23.024,23.024,0,0,1-16.5-7.336,7.886,7.886,0,0,1-.586.667c-.579.53-1.147,1.08-1.773,1.55a28.172,28.172,0,0,1-2.94,2.024,23.754,23.754,0,0,1-3.153,1.421c-.91.353-1.862.6-2.8.883a21.186,21.186,0,0,1-4.242.686c-.433.042-.868.056-1.369.087,0,1.2,0,2.371,0,3.545a30.052,30.052,0,0,0,1.042,7.8c.037.138.088.273.131.41.3.951.561,1.914.9,2.851a20.4,20.4,0,0,0,.931,2.121c.45.91.946,1.8,1.418,2.7.117.222.271.216.435.081.527-.436,1.078-.848,1.564-1.327a26.788,26.788,0,0,0,3-3.633,17.337,17.337,0,0,0,1.345-2.208c.461-.917.842-1.877,1.225-2.832a2.441,2.441,0,0,0,.018-1.694,14.156,14.156,0,0,0-.568-1.418c-.106-.234-.288-.431-.413-.657a5.55,5.55,0,0,0-1.434-1.616,6.515,6.515,0,0,0-2.439-1.176,4.151,4.151,0,0,0-1.123-.156c-.81.011-1.618.077-2.423.12m11.688,3.7c.111.845.244,1.571.292,2.3s.011,1.488.011,2.283c.8-.728.9-1.034.652-1.984-.11-.426-.218-.855-.369-1.267-.157-.429-.365-.839-.585-1.335m2.685-1.627-.072.059,1.318,2.352c.282-.164.173-.4.048-.618a4.187,4.187,0,0,0-.277-.409q-.507-.694-1.017-1.384m-9.236-4.018-.066.126c.152.1.348.318.449.279a5.574,5.574,0,0,0,.883-.511l-.055-.085-1.211.191" transform="translate(-231.64 -184.01)" fill="#82879b"/>
    <path id="Path_5719" data-name="Path 5719" d="M214.908,1111.973c.317-.014,1.02.959.848,1.153a1.711,1.711,0,0,1-.755.484c-.107.032-.311-.245-.462-.39a3.238,3.238,0,0,1-.284-.318c-.212-.264-.187-.434.1-.614.19-.12.391-.222.555-.314" transform="translate(-207.006 -1074.722)" fill="#82879b"/>
    <path id="Path_5720" data-name="Path 5720" d="M1360.449,1117.214c.115-.5.5-.946.781-.885-.087.414-.49.9-.759.905Z" transform="translate(-1315.281 -1078.927)" fill="#82879b"/>
    <path id="Path_5721" data-name="Path 5721" d="M571.671,1473.908l.561-.341-.07.553-.491-.212" transform="translate(-552.691 -1424.203)" fill="#82879b"/>
    <path id="Path_5722" data-name="Path 5722" d="M759.747,985.4c.007.046.014.063.009.069a18.4,18.4,0,0,1-1.26,1.581,1.354,1.354,0,0,1-1.238.313,3.932,3.932,0,0,1-1.14-.364c-.9-.5-1.773-1.05-2.659-1.577-.508-.3-1.013-.614-1.532-.9a1.869,1.869,0,0,1-1.015-1.5,1.312,1.312,0,0,1,.132-.722c.426-.809.89-1.6,1.34-2.392.087-.153.182-.3.269-.455a1.3,1.3,0,0,1,1.321-.57,4.1,4.1,0,0,1,1.913.79c.688.393,1.369.8,2.053,1.2.744.437,1.506.848,2.224,1.325a1.848,1.848,0,0,1,.761,1.086c.183.668-.268,1.039-.575,1.486-.031.046-.127.062-.194.065a9.841,9.841,0,0,1-4.321-.4,3.916,3.916,0,0,0-.419-.108l.954-1.47a4.282,4.282,0,0,0,2.237.315c-.306-.211-.54-.395-.793-.544-.914-.538-1.839-1.056-2.75-1.6a.639.639,0,0,0-.947.125,12.788,12.788,0,0,0-.953,1.488.663.663,0,0,0,.331.956c.991.582,1.976,1.175,2.979,1.734a1.168,1.168,0,0,0,.637.06,7.044,7.044,0,0,1,.807-.153c.6.018,1.205.094,1.83.149" transform="translate(-725.974 -946.095)" fill="#82879b"/>
    <path id="Path_5723" data-name="Path 5723" d="M877.782,825.008c-.24.407-.454.786-.684,1.155-.32.512-.652,1.017-.977,1.525-.13.2-.127.356.115.493.881.5,1.753,1.016,2.677,1.555-.14.278-.275.55-.413.82-.021.041-.065.07-.09.111-.311.493-.335.484-.834.173-.661-.412-1.341-.793-2.011-1.191-.621-.369-1.237-.748-1.862-1.111-.6-.349-1.218-.671-1.814-1.03a2.372,2.372,0,0,1-1.048-1.123.945.945,0,0,1,.175-1.064c.65-.745,1.3-1.491,1.955-2.229a.391.391,0,0,1,.28-.122q.886.073,1.768.181c.287.035.294.135.1.364-.627.754-1.233,1.526-1.829,2.3a.468.468,0,0,0,.233.743,1.09,1.09,0,0,1,.129.061c.507.3.482.284.829-.226.512-.753,1.063-1.479,1.6-2.212a.2.2,0,0,1,.178-.063c.5.284,1,.58,1.514.885" transform="translate(-841.843 -795.402)" fill="#82879b"/>
    <path id="Path_5724" data-name="Path 5724" d="M1012.345,672.381l-1.43,1.519c-.316.336-.65.657-.941,1.013-.149.182-.4.4-.119.678a.555.555,0,0,0,.82-.093c.233-.287.432-.6.676-.879.471-.532.789-1.211,1.476-1.541a.81.81,0,0,1,.959.03,4.35,4.35,0,0,1,.784.576,1.813,1.813,0,0,1,.131,1.686c-.311,1.061-.687,2.1-1.05,3.147-.035.1-.162.235-.251.238-.5.019-1.008,0-1.583,0,.139-.343.221-.585.332-.813.313-.641.643-1.274.956-1.915.125-.256.229-.524.331-.791.09-.235.082-.494-.183-.561a.574.574,0,0,0-.484.219c-.348.534-.648,1.1-.97,1.653a3.6,3.6,0,0,1-.312.476,1.542,1.542,0,0,1-1.987.262c-.395-.262-.827-.468-1.212-.743a1.963,1.963,0,0,1-.583-.631.929.929,0,0,1,.311-1.151c.856-.7,1.7-1.425,2.554-2.13a.95.95,0,0,1,.426-.223c.435-.066.876-.092,1.314-.133l.035.111" transform="translate(-974.157 -649.749)" fill="#82879b"/>
    <path id="Path_5725" data-name="Path 5725" d="M454.429,1385.843l-.809.3.46.441Z" transform="translate(-438.559 -1339.418)" fill="#82879b"/>
    <path id="Path_5726" data-name="Path 5726" d="M1387.525,1828.762l.029,0a.2.2,0,0,0,.1-.041c.029-.028.08-.132.08-.511v-.5a.215.215,0,0,0-.187-.14.244.244,0,0,0-.2.138.911.911,0,0,0-.092.467.883.883,0,0,0,.095.467.217.217,0,0,0,.179.119" transform="translate(-1341.194 -1766.349)" fill="#82879b"/>
    <path id="Path_5727" data-name="Path 5727" d="M1338.858,1826.661c-.036-.126-.09-.187-.164-.187s-.127.059-.162.18a1.649,1.649,0,0,0-.058.458h.443a1.723,1.723,0,0,0-.059-.45" transform="translate(-1294.036 -1765.288)" fill="#82879b"/>
    <path id="Path_5728" data-name="Path 5728" d="M1120.775,1826.661c-.036-.126-.09-.187-.164-.187s-.127.059-.162.18a1.648,1.648,0,0,0-.058.458h.443a1.729,1.729,0,0,0-.059-.45" transform="translate(-1083.193 -1765.288)" fill="#82879b"/>
    <path id="Path_5729" data-name="Path 5729" d="M1794.5,1817.424c.1,0,.168-.064.206-.2a2.62,2.62,0,0,0,.061-.658c0-.525-.091-.79-.27-.79s-.27.266-.27.79a2.5,2.5,0,0,0,.064.655c.039.134.108.2.209.2" transform="translate(-1734.66 -1754.951)" fill="#82879b"/>
    <path id="Path_5730" data-name="Path 5730" d="M0,1765.041H100V1760H0Zm68.433-1.564a.467.467,0,0,0,.191.037.337.337,0,0,0,.269-.117.479.479,0,0,0,.1-.325.428.428,0,0,0-.089-.3.459.459,0,0,0-.334-.094h-.083v-.128h.083a.3.3,0,0,0,.261-.1.407.407,0,0,0,.081-.248.335.335,0,0,0-.079-.229.248.248,0,0,0-.2-.089.361.361,0,0,0-.186.038c-.024.015-.053.038-.053.062a.04.04,0,0,0,.022.039.3.3,0,0,0,.079.029.21.21,0,0,1,.09.352.238.238,0,0,1-.173.062.241.241,0,0,1-.184-.078.293.293,0,0,1-.072-.207.389.389,0,0,1,.155-.311.621.621,0,0,1,.4-.124c.5,0,.746.153.746.456a.4.4,0,0,1-.148.31.518.518,0,0,1-.175.1.71.71,0,0,1,.244.1.419.419,0,0,1,.191.361.5.5,0,0,1-.229.434,1.107,1.107,0,0,1-.623.151.71.71,0,0,1-.444-.125.411.411,0,0,1-.165-.34.324.324,0,0,1,.076-.221.256.256,0,0,1,.2-.088.269.269,0,0,1,.193.067.222.222,0,0,1,.071.167.217.217,0,0,1-.056.156.234.234,0,0,1-.12.071c-.089.021-.121.046-.121.064s0,.041.069.072m-.838-1.721h.153v1.721h.219v.128h-1v-.128h.25v-1.391l-.241.09-.039-.12Zm-2.231.253a.723.723,0,0,1,.595-.268.713.713,0,0,1,.59.265,1.082,1.082,0,0,1,.207.688,1.037,1.037,0,0,1-.217.686.733.733,0,0,1-.59.261.721.721,0,0,1-.585-.26,1.11,1.11,0,0,1-.212-.723,1.013,1.013,0,0,1,.212-.651m-1.894,1.56a.859.859,0,0,1,.182-.456,5.259,5.259,0,0,1,.454-.473.976.976,0,0,0,.157-.2.481.481,0,0,0,.067-.246.33.33,0,0,0-.077-.22.273.273,0,0,0-.225-.089.433.433,0,0,0-.18.037c-.044.02-.068.041-.068.06a.047.047,0,0,0,.026.046.361.361,0,0,0,.083.035.224.224,0,0,1,.107.073.228.228,0,0,1,.05.154.221.221,0,0,1-.071.165.266.266,0,0,1-.19.067.258.258,0,0,1-.2-.088.315.315,0,0,1-.077-.218.413.413,0,0,1,.177-.339.777.777,0,0,1,.48-.132.984.984,0,0,1,.519.13.421.421,0,0,1,.222.375.565.565,0,0,1-.092.325.591.591,0,0,1-.232.2,2.454,2.454,0,0,1-.276.113,2.593,2.593,0,0,0-.268.109l-.042.022h.033a1.113,1.113,0,0,1,.279.041.982.982,0,0,0,.231.039.9.9,0,0,0,.138-.009.184.184,0,0,0,.09-.045.149.149,0,0,0,.048-.1l0-.03H64.9l.006.025a.819.819,0,0,1,.026.2.609.609,0,0,1-.1.348.337.337,0,0,1-.3.151,1,1,0,0,1-.426-.118.9.9,0,0,0-.323-.112.186.186,0,0,0-.2.173l-.006.026h-.125Zm-.712-1.369a.328.328,0,0,1,.456,0,.314.314,0,0,1,0,.449.328.328,0,0,1-.456,0,.314.314,0,0,1,0-.449m0,.928a.328.328,0,0,1,.456,0,.315.315,0,0,1,0,.449.328.328,0,0,1-.456,0,.314.314,0,0,1,0-.449m-1.278-1.372h.153v1.721h.219v.128h-1v-.128h.25v-1.391l-.241.09-.039-.12Zm-2.231.253a.723.723,0,0,1,.595-.268.713.713,0,0,1,.59.265,1.082,1.082,0,0,1,.207.688,1.037,1.037,0,0,1-.217.686.733.733,0,0,1-.59.261.721.721,0,0,1-.585-.26,1.11,1.11,0,0,1-.212-.723,1.013,1.013,0,0,1,.212-.651m-1.788,0a.723.723,0,0,1,.595-.268.713.713,0,0,1,.59.265,1.082,1.082,0,0,1,.207.688,1.037,1.037,0,0,1-.217.686.733.733,0,0,1-.59.261.721.721,0,0,1-.585-.26,1.11,1.11,0,0,1-.212-.723,1.013,1.013,0,0,1,.212-.651m-1.683-.159a.353.353,0,0,1,.29-.124,1.5,1.5,0,0,1,.451.09,1.37,1.37,0,0,0,.343.087.112.112,0,0,0,.1-.037.335.335,0,0,0,.05-.135l.005-.027h.114v.034a1,1,0,0,1-.178.6c-.049.067-.1.13-.148.189a.7.7,0,0,0-.164.453.682.682,0,0,0,.027.163.8.8,0,0,1,.029.2.3.3,0,0,1-.088.2.3.3,0,0,1-.237.1.285.285,0,0,1-.234-.106.422.422,0,0,1-.082-.271.67.67,0,0,1,.071-.3.8.8,0,0,1,.181-.238c.072-.064.147-.125.223-.182a1.77,1.77,0,0,0,.227-.207,1.076,1.076,0,0,0,.078-.093.586.586,0,0,1-.293.067,1.78,1.78,0,0,1-.3-.036,1.735,1.735,0,0,0-.268-.035.139.139,0,0,0-.111.053.242.242,0,0,0-.053.146l0,.031h-.091l-.007-.025a1.136,1.136,0,0,1-.029-.286.472.472,0,0,1,.1-.306m-1.686,1.72a.858.858,0,0,1,.182-.456,5.245,5.245,0,0,1,.454-.473.98.98,0,0,0,.157-.2.481.481,0,0,0,.067-.246.33.33,0,0,0-.077-.22.274.274,0,0,0-.225-.089.433.433,0,0,0-.18.037c-.044.02-.068.041-.068.06a.047.047,0,0,0,.025.046.365.365,0,0,0,.083.035.225.225,0,0,1,.107.073.228.228,0,0,1,.05.154.221.221,0,0,1-.071.165.266.266,0,0,1-.19.067.257.257,0,0,1-.2-.088.315.315,0,0,1-.077-.218.414.414,0,0,1,.177-.339.777.777,0,0,1,.48-.132.984.984,0,0,1,.519.13.421.421,0,0,1,.222.375.565.565,0,0,1-.092.325.591.591,0,0,1-.232.2,2.452,2.452,0,0,1-.276.113,2.6,2.6,0,0,0-.268.109l-.042.022h.033a1.113,1.113,0,0,1,.279.041.982.982,0,0,0,.231.039.9.9,0,0,0,.138-.009.183.183,0,0,0,.09-.045.149.149,0,0,0,.048-.1l0-.03h.086l.006.025a.817.817,0,0,1,.026.2.609.609,0,0,1-.1.348.337.337,0,0,1-.3.151,1,1,0,0,1-.426-.118.9.9,0,0,0-.323-.112.186.186,0,0,0-.2.173l-.006.026h-.125Zm-3.06-1.528a.944.944,0,0,1,.687-.255.877.877,0,0,1,.938.942.859.859,0,0,1-.264.673,1.1,1.1,0,0,1-1.36,0,.86.86,0,0,1-.261-.671.926.926,0,0,1,.26-.69m-1.88.784h.129v.034a.624.624,0,0,0,.2.466.687.687,0,0,0,.491.193.249.249,0,0,0,.179-.063.216.216,0,0,0,.066-.167c0-.077-.052-.142-.16-.2-.064-.032-.176-.084-.332-.154a1.838,1.838,0,0,1-.341-.183.443.443,0,0,1-.183-.419.563.563,0,0,1,.2-.4.6.6,0,0,1,.388-.141,1.221,1.221,0,0,1,.379.055,1.327,1.327,0,0,0,.176.052c.007,0,.029,0,.029-.074v-.033H50.5v.627h-.129v-.033a.413.413,0,0,0-.154-.334.609.609,0,0,0-.4-.132.211.211,0,0,0-.158.056.169.169,0,0,0-.056.122.244.244,0,0,0,.018.107.177.177,0,0,0,.065.065c.036.023.067.042.093.055s.069.033.127.057l.124.052.2.09c.022.01.052.024.092.045a.545.545,0,0,1,.095.059l.076.061a.3.3,0,0,1,.077.085c.015.027.031.058.045.09a.487.487,0,0,1,.034.247.56.56,0,0,1-.2.4.728.728,0,0,1-.463.137,1.127,1.127,0,0,1-.512-.129.279.279,0,0,0-.11-.039c-.059,0-.082.026-.082.089v.034h-.129Zm-1.094.652h.156v-1.525h-.156v-.128h.848v.128h-.156v1.525h.156v.128h-.848Zm-2.352-1.2a.615.615,0,0,1,.72-.158.382.382,0,0,1,.116.081v-.583h-.156v-.128h.692v1.991h.156v.128h-.692v-.073a.528.528,0,0,1-.37.11.615.615,0,0,1-.462-.206.813.813,0,0,1-.194-.577.845.845,0,0,1,.19-.583m-1.579.011a.79.79,0,0,1,.529-.187.714.714,0,0,1,.52.205.893.893,0,0,1,.209.655v.033h-.942c.026.318.155.472.393.472a.7.7,0,0,0,.231-.047.367.367,0,0,0,.183-.126l.019-.027.1.068-.016.027a.533.533,0,0,1-.249.2.845.845,0,0,1-.343.076,1.276,1.276,0,0,1-.3-.033.938.938,0,0,1-.266-.113.543.543,0,0,1-.208-.244.92.92,0,0,1-.073-.385.719.719,0,0,1,.221-.575m-2.213-.156H42.1a.725.725,0,0,1,.1-.372.763.763,0,0,1,.318-.268.964.964,0,0,1,.293-.081,1.145,1.145,0,0,1,.153-.01,1.264,1.264,0,0,1,.211.018.625.625,0,0,1,.3.117.326.326,0,0,1,.124.2.244.244,0,0,1-.055.2.265.265,0,0,1-.175.1l-.032,0a.254.254,0,0,1-.245-.3.223.223,0,0,1,.029-.072c.021-.035.025-.056.022-.064s-.008-.018-.079-.043a.307.307,0,0,0-.1-.015.661.661,0,0,0-.11.01.207.207,0,0,0-.168.15,1.447,1.447,0,0,0-.05.427h.991v1.348h.156v.128h-.848v-.128h.156v-1.219h-.456v1.219h.156v.128h-.848v-.128H42.1v-1.219h-.188Zm-.775-.588a.3.3,0,0,1,.219-.089.305.305,0,0,1,.307.3.289.289,0,0,1-.09.214.3.3,0,0,1-.217.088.305.305,0,0,1-.218-.087.287.287,0,0,1-.092-.214.292.292,0,0,1,.091-.215m-.194,1.935H41.1v-1.219h-.125v-.128h.66v1.348h.156v.128h-.848Zm-2.639,0h.156v-1.219h-.156v-.128H39v.2a.481.481,0,0,1,.042-.065.389.389,0,0,1,.178-.137.562.562,0,0,1,.183-.032.48.48,0,0,1,.171.031.227.227,0,0,1,.119.107v-.1h.262A.444.444,0,0,0,40.2,1762a.613.613,0,0,0,.151-.31l.006-.026h.1v.469h.363v.128h-.363v.714a1.184,1.184,0,0,0,.02.308.532.532,0,0,0,.044.091.143.143,0,0,0,.136.064.28.28,0,0,0,.146-.025l.051-.034v.141l-.014.01a.6.6,0,0,1-.347.11.618.618,0,0,1-.422-.131.6.6,0,0,1-.149-.463v-.784h-.218a.255.255,0,0,1,0,.2.249.249,0,0,1-.138.142.273.273,0,0,1-.107.024.212.212,0,0,1-.076-.014.239.239,0,0,1-.119-.088.37.37,0,0,1-.048-.1c-.018-.066-.039-.089-.053-.089s-.037,0-.1.178a1.219,1.219,0,0,0-.07.413v.552h.156v.128h-.848Zm-1.42-1.191a.79.79,0,0,1,.529-.187.714.714,0,0,1,.52.205.893.893,0,0,1,.209.655v.033H37.2c.026.318.155.472.393.472a.7.7,0,0,0,.231-.047.367.367,0,0,0,.183-.126l.019-.027.1.068-.016.027a.533.533,0,0,1-.249.2.845.845,0,0,1-.343.076,1.276,1.276,0,0,1-.3-.033.938.938,0,0,1-.266-.113.543.543,0,0,1-.208-.244.92.92,0,0,1-.073-.385.719.719,0,0,1,.221-.575m-1.734-.28a.97.97,0,0,1,.664-.223.887.887,0,0,1,.435.117.191.191,0,0,0,.092.036.044.044,0,0,0,.04-.023.1.1,0,0,0,.02-.057v-.033h.126v.75H36.4v-.034a.7.7,0,0,0-.153-.433.5.5,0,0,0-.43-.2.282.282,0,0,0-.245.173,1.986,1.986,0,0,0,0,1.265.328.328,0,0,0,.309.173.532.532,0,0,0,.366-.133.6.6,0,0,0,.184-.378l0-.029h.13l-.006.038a.737.737,0,0,1-.229.472.651.651,0,0,1-.436.156,1.083,1.083,0,0,1-.736-.227,1.107,1.107,0,0,1-.006-1.418" transform="translate(0 -1701.041)" fill="#82879b"/>
    <path id="Path_5731" data-name="Path 5731" d="M1546.761,1818.742c.248,0,.373-.268.373-.8a1.385,1.385,0,0,0-.1-.6.279.279,0,0,0-.536,0,1.382,1.382,0,0,0-.106.6,1.4,1.4,0,0,0,.1.595.3.3,0,0,0,.272.2" transform="translate(-1495.047 -1756.275)" fill="#82879b"/>
    <path id="Path_5732" data-name="Path 5732" d="M1978.686,1817.424c.1,0,.168-.064.206-.2a2.613,2.613,0,0,0,.061-.658c0-.525-.091-.79-.27-.79s-.27.266-.27.79a2.5,2.5,0,0,0,.064.655c.039.134.108.2.209.2" transform="translate(-1912.729 -1754.951)" fill="#82879b"/>
    <path id="Path_5733" data-name="Path 5733" d="M1740.64,1817.424c.1,0,.168-.064.206-.2a2.612,2.612,0,0,0,.061-.658c0-.525-.091-.79-.27-.79s-.27.266-.27.79a2.5,2.5,0,0,0,.064.655c.039.134.108.2.209.2" transform="translate(-1682.586 -1754.951)" fill="#82879b"/>
    <path id="Path_5734" data-name="Path 5734" d="M1724.621,1474.088h1.245l-.629-1.659Z" transform="translate(-1667.363 -1423.104)" fill="#82879b"/>
    <path id="Path_5735" data-name="Path 5735" d="M2363.835,1464.124a.887.887,0,0,0-.427-.21,4.255,4.255,0,0,0-.757-.043h-.414v2.961h.688a2.566,2.566,0,0,0,.558-.043.859.859,0,0,0,.372-.186.946.946,0,0,0,.241-.432,2.851,2.851,0,0,0,.094-.819,2.61,2.61,0,0,0-.094-.8,1.019,1.019,0,0,0-.261-.433" transform="translate(-2283.811 -1414.832)" fill="#82879b"/>
    <path id="Path_5736" data-name="Path 5736" d="M2505.532,1644a.271.271,0,0,0,.291-.293.277.277,0,0,0-.078-.207.282.282,0,0,0-.208-.078.29.29,0,0,0-.213.078.279.279,0,0,0-.079.208.268.268,0,0,0,.288.291" transform="translate(-2422.069 -1588.369)" fill="#82879b"/>
    <path id="Path_5737" data-name="Path 5737" d="M2300.311,1673.237a1.679,1.679,0,0,0-.434-.034h-.4v.641h.453a2.246,2.246,0,0,0,.336-.015.3.3,0,0,0,.178-.1.292.292,0,0,0,.069-.2.31.31,0,0,0-.053-.183.3.3,0,0,0-.153-.109" transform="translate(-2223.138 -1617.151)" fill="#82879b"/>
    <path id="Path_5738" data-name="Path 5738" d="M2112.706,1464.761a.571.571,0,0,0,.094-.335.529.529,0,0,0-.123-.365.568.568,0,0,0-.347-.175q-.112-.015-.672-.015h-.719v1.134h.682a3.6,3.6,0,0,0,.828-.055.493.493,0,0,0,.258-.189" transform="translate(-2040.854 -1414.832)" fill="#82879b"/>
    <path id="Path_5739" data-name="Path 5739" d="M2300.158,1645.288a.325.325,0,0,0,.2-.086.253.253,0,0,0,.072-.187.261.261,0,0,0-.062-.181.281.281,0,0,0-.185-.084c-.048-.005-.188-.008-.418-.008h-.281v.554h.321q.286,0,.355-.008" transform="translate(-2223.138 -1589.644)" fill="#82879b"/>
    <path id="Path_5740" data-name="Path 5740" d="M1536.81,58.557h48.977V0H1536.81Zm5.466-52.5h37.357V44.977h-37.357Zm26.23,46.692h-.922V48.283h.922Zm-6.019-2.724v.753H1560.2V52h2.55v.753h-3.471V48.283h3.384v.756H1560.2v.991Zm-17.5,2.724-.4-1.016h-1.824l-.377,1.016h-.978l1.778-4.471h.974l1.827,4.471Zm4.356-.279a2.184,2.184,0,0,1-2.707-.253,2.3,2.3,0,0,1-.585-1.664,2.413,2.413,0,0,1,.589-1.734,2.039,2.039,0,0,1,1.547-.618,1.921,1.921,0,0,1,1.36.485,1.754,1.754,0,0,1,.467.823l-.912.213a.945.945,0,0,0-.338-.549.981.981,0,0,0-.624-.2,1.048,1.048,0,0,0-.823.357,1.723,1.723,0,0,0-.316,1.156,1.846,1.846,0,0,0,.311,1.208,1.02,1.02,0,0,0,.809.36.934.934,0,0,0,.632-.229,1.32,1.32,0,0,0,.38-.72l.894.278a1.959,1.959,0,0,1-.683,1.087m4.339,0a2.184,2.184,0,0,1-2.707-.253,2.3,2.3,0,0,1-.585-1.664,2.413,2.413,0,0,1,.588-1.734,2.039,2.039,0,0,1,1.547-.618,1.921,1.921,0,0,1,1.36.485,1.755,1.755,0,0,1,.467.823l-.912.213a.946.946,0,0,0-.338-.549.981.981,0,0,0-.624-.2,1.048,1.048,0,0,0-.823.357,1.723,1.723,0,0,0-.316,1.156,1.848,1.848,0,0,0,.311,1.208,1.02,1.02,0,0,0,.81.36.935.935,0,0,0,.632-.229,1.322,1.322,0,0,0,.38-.72l.893.278a1.957,1.957,0,0,1-.683,1.087m2.851,4.622h-.455V55.209L1555.6,57.1h-.471l-.479-1.887V57.1h-.455V54.7h.733l.44,1.635.435-1.635h.734Zm2.217-.312a.692.692,0,0,1-.327.267,1.386,1.386,0,0,1-.527.087,1.057,1.057,0,0,1-.706-.21.911.911,0,0,1-.294-.612l.476-.046a.572.572,0,0,0,.174.348.531.531,0,0,0,.355.111.549.549,0,0,0,.356-.1.293.293,0,0,0,.12-.231.217.217,0,0,0-.05-.145.4.4,0,0,0-.176-.1q-.086-.029-.392-.1a1.336,1.336,0,0,1-.552-.237.621.621,0,0,1-.223-.482.612.612,0,0,1,.1-.343.656.656,0,0,1,.3-.243,1.224,1.224,0,0,1,.477-.083,1.031,1.031,0,0,1,.687.2.694.694,0,0,1,.242.528l-.489.021a.41.41,0,0,0-.135-.266.5.5,0,0,0-.31-.081.564.564,0,0,0-.334.087.174.174,0,0,0-.078.149.183.183,0,0,0,.073.146,1.293,1.293,0,0,0,.45.16,2.39,2.39,0,0,1,.528.173.678.678,0,0,1,.268.244.707.707,0,0,1,.1.382.7.7,0,0,1-.116.386m-.8-4.03-.666-.973a6.274,6.274,0,0,0-.486-.657.707.707,0,0,0-.277-.186,1.551,1.551,0,0,0-.464-.05h-.187v1.866h-.922V48.283h1.94a3.384,3.384,0,0,1,1.063.12,1.045,1.045,0,0,1,.531.428,1.269,1.269,0,0,1,.2.7,1.179,1.179,0,0,1-.3.831,1.463,1.463,0,0,1-.9.413,2.147,2.147,0,0,1,.494.375,5.122,5.122,0,0,1,.525.726l.557.872Zm2.906,4.193a1.151,1.151,0,0,1-1.437-.136,1.24,1.24,0,0,1-.311-.892,1.3,1.3,0,0,1,.313-.93,1.077,1.077,0,0,1,.822-.331,1.015,1.015,0,0,1,.723.26.945.945,0,0,1,.248.442l-.484.114a.509.509,0,0,0-.179-.294.518.518,0,0,0-.332-.108.554.554,0,0,0-.437.191.931.931,0,0,0-.168.62,1,1,0,0,0,.165.648.539.539,0,0,0,.43.193.493.493,0,0,0,.336-.123.709.709,0,0,0,.2-.386l.474.149a1.051,1.051,0,0,1-.363.583m2.738-.227a.643.643,0,0,1-.21.247.7.7,0,0,1-.328.114q-.122.013-.59.016h-.825V54.7h.969a2.835,2.835,0,0,1,.429.024.635.635,0,0,1,.253.1.615.615,0,0,1,.186.2.537.537,0,0,1,.074.28.555.555,0,0,1-.092.309.567.567,0,0,1-.249.211.639.639,0,0,1,.341.218.573.573,0,0,1,.119.361.708.708,0,0,1-.077.318m2.482.377h-.464V55.364a1.606,1.606,0,0,1-.6.348V55.3a1.345,1.345,0,0,0,.4-.223.848.848,0,0,0,.293-.383h.377Zm-.235-4.437a2.842,2.842,0,0,1-.816.095h-1.734V48.283h1.684a3.357,3.357,0,0,1,.869.085,1.532,1.532,0,0,1,.688.412,1.946,1.946,0,0,1,.436.724,3.241,3.241,0,0,1,.149,1.057,2.884,2.884,0,0,1-.14.952,1.965,1.965,0,0,1-.489.79,1.629,1.629,0,0,1-.648.357m1.931,4.437h-.465V55.364a1.607,1.607,0,0,1-.6.348V55.3a1.348,1.348,0,0,0,.4-.223.851.851,0,0,0,.293-.383h.377Zm2.067-.165a.783.783,0,0,1-.569.208.867.867,0,0,1-.55-.172.667.667,0,0,1-.26-.556.682.682,0,0,1,.1-.357.626.626,0,0,1,.307-.251.514.514,0,0,1-.344-.5.578.578,0,0,1,.189-.443.913.913,0,0,1,1.075,0,.575.575,0,0,1,.191.443.518.518,0,0,1-.088.3.553.553,0,0,1-.246.2.649.649,0,0,1,.307.234.614.614,0,0,1,.1.355.719.719,0,0,1-.214.54m2.761-7.892h-1.351v3.715h-.922V49.039h-1.354v-.756h3.627Zm3.823,3.715h-3.471V48.283h3.384v.756h-2.463v.991h2.291v.753h-2.291V52h2.55Zm4.234-1.241a1.968,1.968,0,0,1-.489.79,1.629,1.629,0,0,1-.648.357,2.844,2.844,0,0,1-.816.095h-1.734V48.283h1.684a3.355,3.355,0,0,1,.868.085,1.532,1.532,0,0,1,.688.412,1.946,1.946,0,0,1,.436.724,3.238,3.238,0,0,1,.149,1.057,2.887,2.887,0,0,1-.14.952" transform="translate(-1485.787)" fill="#82879b"/>
    <path id="Path_5741" data-name="Path 5741" d="M2504.285,1671.641a.292.292,0,0,0-.254.116.422.422,0,0,0-.083.252.418.418,0,0,0,.1.3.32.32,0,0,0,.245.106.31.31,0,0,0,.238-.1.42.42,0,0,0,.094-.3.379.379,0,0,0-.1-.271.319.319,0,0,0-.243-.1" transform="translate(-2420.816 -1615.642)" fill="#82879b"/>
    <path id="Path_5742" data-name="Path 5742" d="M2775.884,1464.124a.883.883,0,0,0-.426-.21,4.256,4.256,0,0,0-.757-.043h-.414v2.961h.688a2.564,2.564,0,0,0,.557-.043.858.858,0,0,0,.372-.186.94.94,0,0,0,.241-.432,2.868,2.868,0,0,0,.094-.819,2.626,2.626,0,0,0-.094-.8,1.017,1.017,0,0,0-.262-.433" transform="translate(-2682.18 -1414.832)" fill="#82879b"/>
    <path id="Path_5743" data-name="Path 5743" d="M50.624,0H0V58.557H50.624Zm-43,39.311c-.245-.267-.349-.117-.485.123L6.859,39.1c.258-.261.179-.486-.03-.761-.4-.519-.35-.691.185-1.064.2-.141.407-.282.622-.4a.632.632,0,0,1,.906.184c.254.322.491.659.717,1a.441.441,0,0,1-.109.659,7.087,7.087,0,0,1-.968.627.605.605,0,0,1-.554-.032m.317.506c.522-.358,1.041-.724,1.576-1.064.063-.04.258.033.324.112.356.425.69.869,1.058,1.34l-.319.246L9.561,39.177l-.341.305.77,1.037-.262.283L8.845,39.72c-.663.46-.663.46-.9.1M10.875,41.4c.19.267.4.519.612.77.252.3.093.525-.125.744s-.589.3-.765.11A12.18,12.18,0,0,1,9.663,41.9c-.068-.093-.019-.29.012-.431a.224.224,0,0,1,.2-.1c.076.02.19.111.191.172.009.519.48.725.715,1.088a.286.286,0,0,0,.263-.006.347.347,0,0,0,.019-.306c-.187-.261-.409-.5-.61-.747-.269-.336-.238-.539.118-.85a.568.568,0,0,1,.814.076c.207.225.416.448.624.673.229.247.234.52-.082.978-.081-.142-.186-.242-.188-.343,0-.459-.4-.659-.618-.968-.039-.053-.179-.031-.273-.045.007.1-.023.231.028.3m2.549,4.729.92-.8-.012-.066a4.728,4.728,0,0,1-.69.134,5.793,5.793,0,0,1-.755-.053c.024-.265.033-.532.077-.793a2.163,2.163,0,0,0,.1-.526l-.921.754-.321-.289c.506-.437.971-.848,1.45-1.243.061-.051.245-.063.269-.026a.619.619,0,0,1,.128.4c-.08.356-.211.7-.319,1.051-.031.1-.051.2-.091.359.448-.071.857-.115,1.255-.2.309-.07.592-.142.8.257l-1.562,1.348-.331-.3m2.012,1.33c-.217-.205-.437-.421-.667-.623a.2.2,0,0,0-.19-.018c-.251.17-.417.047-.618-.207.445-.136.865-.262,1.283-.394.181-.057.355-.139.537-.19.244-.068.513.156.444.379-.173.567-.367,1.128-.561,1.718-.373-.224-.373-.224-.227-.664m1.584.258c-.22.24-.434.449-.619.682-.133.167-.285.2-.408.057-.044-.05.035-.26.109-.356.179-.23.391-.435.586-.653.124-.137.243-.279.352-.4a.411.411,0,0,1,.376.453c.016.462.1.921.142,1.288a2.45,2.45,0,0,0,.61-.485c.214-.316.349-.224.563,0l-1.2,1.354c-.636-.52-.341-1.252-.509-1.937m2.953,1.725c-.067.53-.156,1.057-.241,1.609-.259-.075-.4-.177-.382-.473.008-.107-.122-.242-.218-.335a1.05,1.05,0,0,0-.352-.224.544.544,0,0,0-.378-.044c-.242.128-.394.043-.564-.144.531-.286,1.039-.582,1.568-.831a.632.632,0,0,1,.5.048c.073.039.086.262.069.394m.6,2.109a.515.515,0,0,1-.2-.8c.135-.219.244-.455.384-.671a.473.473,0,0,1,.683-.159c.368.185.739.362,1.107.547.291.146.293.169.068.513-.371-.185-.743-.384-1.127-.554-.125-.055-.371-.1-.408-.042a3.445,3.445,0,0,0-.311.7c-.008.02.068.087.116.112.239.129.478.262.726.371a.91.91,0,0,0,.308.02l.021-.11-.378-.265.117-.345.826.411-.473.916c-.532-.234-1-.425-1.454-.645m3.789-.005c-.281-.1-.557-.205-.843-.282-.08-.022-.185.048-.279.076,0,.046.009.092.013.138l1.193.334-.137.359-1.136-.264-.078.059c.057.071.1.18.175.207.365.134.738.247,1.111.368-.019.361-.191.408-.517.282-.439-.17-.9-.29-1.383-.444.169-.5.325-1.023.532-1.521.03-.071.318-.084.466-.044.444.121.878.281,1.32.427-.03.391-.078.426-.435.305M27.306,53.2l-.379-.018v-.859l-.083-.041a3.315,3.315,0,0,1-.34.448.659.659,0,0,1-.4.216c-.115-.005-.237-.161-.332-.273a6.072,6.072,0,0,1-.343-.5c-.041.344-.071.607-.1.888h-.431c.039-.593.075-1.16.112-1.722.376-.052.559.1.75.546a7.768,7.768,0,0,0,.376.683c.264-.35.5-.631.7-.937.143-.221.308-.254.576-.153-.032.552-.064,1.119-.1,1.726m2.445-.39-1.84.292c-.1-.549-.208-1.113-.326-1.742l1.855-.292c.035.118.071.238.119.4l-1.457.221c-.031.242.042.306.256.252.321-.081.649-.136,1.013-.21l.1.38c-.333.073-.655.137-.972.219a.914.914,0,0,0-.24.154.964.964,0,0,0,.3.075,5.593,5.593,0,0,0,.843-.109c.294-.067.4.022.354.357m1.98-.826c-.455-.159-.9-.358-1.343-.542l-.1.071.409.958-.39.16c-.226-.5-.45-.993-.663-1.489-.019-.044.031-.167.064-.175a.955.955,0,0,1,.467-.039c.475.165.937.37,1.486.593L31.219,50.4c.245-.186.424-.21.546.143.116.335.286.652.407.986a1.6,1.6,0,0,1,.034.428,1.314,1.314,0,0,1-.474.019M33.215,51q-.137-.251-.292-.491c-.237-.37-.309-.383-.675-.146-.076.05-.158.09-.259.147l-.167-.38,1.638-.894.284.318-.685.376.717,1.157c-.259.214-.427.161-.562-.086m3.841-2.139c-.166.131-.339.254-.5.388a.743.743,0,0,1-.968.06l-.039-.124A1.857,1.857,0,0,0,36,49.022c.336-.228.655-.482.971-.738.011-.009-.082-.209-.12-.207a.7.7,0,0,0-.353.114c-.228.165-.433.362-.654.536a.612.612,0,0,1-.865-.049.621.621,0,0,1,.017-.9,8.9,8.9,0,0,1,.808-.625c.288-.21.572-.183.921.115a2.534,2.534,0,0,0-.533.2,9.908,9.908,0,0,0-.855.672c-.031.027.019.15.031.228a.761.761,0,0,0,.287-.067c.233-.175.445-.38.673-.561a.7.7,0,0,1,1.116.26c.145.3.053.5-.39.851M38.689,47.3c-.507-.679-1.282-.347-1.937-.5.246-.721.834-.253,1.273-.382,0-.442-.251-.966.343-1.225.215.609-.119,1.419.7,1.855l-.378.257m2.174-2.184a3.351,3.351,0,0,0-.283.322.833.833,0,0,1-1.1.351c.117-.116.218-.227.329-.326.255-.226.52-.441.768-.675.032-.029-.015-.143-.025-.217-.085.019-.2.011-.251.064a4.791,4.791,0,0,0-.46.566.594.594,0,0,1-.7.2.529.529,0,0,1-.35-.293c-.053-.225-.1-.485.188-.66a2.437,2.437,0,0,0,.457-.48c.27-.292.428-.308.782-.076l-1.051.939.092.144a.952.952,0,0,0,.264-.129c.171-.164.32-.351.484-.522a.575.575,0,0,1,.881,0,.557.557,0,0,1-.029.79M41.978,43.8c-.31-.217-.611-.4-.881-.625-.25-.206-.392-.121-.529.118a2.187,2.187,0,0,1-.22.271L40,43.326c.366-.471.715-.932,1.076-1.382.216-.27.307.012.464.128l-.442.59,1.116.81-.238.326m.894-1.124c-.491-.3-.971-.594-1.438-.9-.045-.03-.047-.219,0-.282.315-.427.649-.841,1-1.284l.316.265-.774,1.051.02.1c.089-.018.211-.005.26-.06.218-.242.415-.5.628-.767l.361.191-.684.913c.178.237.19.238.349.021.224-.307.452-.611.693-.938l.363.25-1.091,1.438m2.307-3.247-.928-.5c.158.3.265.511.385.718.147.253.059.447-.237.462s-.568,0-.938,0c.179.14.3.252.44.341s.285.157.426.233c-.1.3-.277.358-.5.222-.433-.261-.854-.542-1.278-.814a.415.415,0,0,1,.518-.375c.364.029.732.007,1.154.007-.166-.318-.319-.616-.478-.912a.442.442,0,0,1,.115-.64l1.558.937-.237.315m1.1-1.594c-.129.213-.269.419-.41.624-.187.272-.306.3-.757.216l.073-.367-.021-.019a3.152,3.152,0,0,1-.726-.017.447.447,0,0,1-.259-.664c.165-.27.354-.525.531-.788a.508.508,0,0,1,.72-.161l-.86,1.131.076.1c.082-.033.189-.044.24-.1a2.387,2.387,0,0,0,.3-.438.678.678,0,0,1,.892-.394c.293.084.4.549.2.884m-.314-10.241c-.239.945-.48,1.89-.763,2.823-.268.885-.548,1.77-.9,2.623a35.077,35.077,0,0,1-1.49,3.22,32.8,32.8,0,0,1-1.93,3.143,28.59,28.59,0,0,1-2.19,2.782,30.923,30.923,0,0,1-2.464,2.412,29.417,29.417,0,0,1-2.507,2.013c-.784.558-1.634,1.022-2.462,1.516a14.157,14.157,0,0,1-1.269.7c-.757.352-1.53.67-2.3,1a.151.151,0,0,0-.033.012c-.768.621-1.4.122-2.061-.24-.955-.524-1.928-1.013-2.872-1.557q-1.325-.764-2.6-1.616c-.742-.5-1.469-1.02-2.163-1.581a20.306,20.306,0,0,1-1.693-1.558c-.721-.733-1.427-1.484-2.1-2.262-.483-.558-.914-1.164-1.348-1.764-.457-.632-.921-1.263-1.323-1.931-.47-.781-.889-1.594-1.306-2.406-.331-.645-.654-1.3-.929-1.967-.356-.869-.669-1.756-.985-2.641-.148-.414-.268-.84-.387-1.264-.206-.736-.452-1.464-.591-2.213-.254-1.361-.449-2.734-.655-4.1a34.377,34.377,0,0,1-.194-5.853c.025-1.171.189-2.339.285-3.509.021-.25.122-.342.385-.333.653.022,1.308.007,2.116.007a15.329,15.329,0,0,0,4.44-.451,23.864,23.864,0,0,0,4.123-1.3,20.5,20.5,0,0,0,3.853-2.178A24.027,24.027,0,0,0,25.69,5.21c.285-.321.571-.641.849-.967.139-.162.223-.181.379.008.473.57.968,1.123,1.468,1.669s.974,1.1,1.514,1.584c.607.549,1.265,1.043,1.918,1.538a17.9,17.9,0,0,0,1.624,1.137c.658.392,1.349.731,2.038,1.066.531.259,1.072.5,1.625.707a15.085,15.085,0,0,0,4.128,1c1.68.121,3.372.068,5.059.076.238,0,.348.057.364.3.119,1.864.324,3.726.343,5.59.015,1.456-.205,2.913-.31,4.371a24.826,24.826,0,0,1-.722,4.3" fill="#82879b"/>
    <path id="Path_5744" data-name="Path 5744" d="M1195.524,1826.608a.28.28,0,0,0-.013-.027v.027Z" transform="translate(-1155.819 -1765.392)" fill="#82879b"/>
  </g>
</svg>
