<svg width="24" height="24" viewBox="0 0 24 24" fill="none" xmlns="http://www.w3.org/2000/svg">
<path d="M12.4905 3C10.612 3.00188 8.77619 3.56064 7.21518 4.60566C5.65416 5.65067 4.438 7.13503 3.72042 8.87109C3.00285 10.6072 2.81607 12.517 3.1837 14.3592C3.55134 16.2014 4.45687 17.8932 5.78585 19.2209C7.11482 20.5485 8.80758 21.4524 10.6501 21.8181C12.4927 22.1839 14.4023 21.9953 16.1377 21.2759C17.873 20.5566 19.3562 19.339 20.3996 17.7769C21.4431 16.2149 22 14.3785 22 12.5C22 11.2516 21.754 10.0155 21.2759 8.86232C20.7979 7.7091 20.0973 6.66141 19.2142 5.77913C18.331 4.89685 17.2826 4.19728 16.1289 3.72042C14.9752 3.24356 13.7389 2.99876 12.4905 3ZM19.074 8.7H16.2715C15.9757 7.5236 15.537 6.38782 14.9653 5.318C16.6964 5.91559 18.1548 7.11602 19.074 8.7ZM12.5 4.938C13.298 6.0893 13.9103 7.35876 14.3145 8.7H10.6855C11.0897 7.35876 11.702 6.0893 12.5 4.938ZM5.147 14.4C4.81768 13.1547 4.81768 11.8453 5.147 10.6H8.35325C8.27207 11.2302 8.22924 11.8647 8.225 12.5C8.23082 13.1354 8.27523 13.7699 8.358 14.4H5.147ZM5.926 16.3H8.7285C9.02431 17.4764 9.46299 18.6122 10.0348 19.682C8.30176 19.0877 6.84233 17.8864 5.926 16.3ZM8.7285 8.7H5.926C6.84349 7.11268 8.30474 5.91129 10.0395 5.318C9.4661 6.3876 9.02582 7.52339 8.7285 8.7ZM12.5 20.062C11.702 18.9107 11.0897 17.6412 10.6855 16.3H14.3145C13.9103 17.6412 13.298 18.9107 12.5 20.062ZM14.723 14.4H10.277C10.1832 13.7709 10.1324 13.1361 10.125 12.5C10.132 11.8639 10.1828 11.2291 10.277 10.6H14.723C14.8172 11.2291 14.868 11.8639 14.875 12.5C14.8676 13.1361 14.8168 13.7709 14.723 14.4ZM14.9605 19.682C15.5323 18.6122 15.9709 17.4764 16.2668 16.3H19.0693C18.1489 17.8849 16.6887 19.0854 14.9558 19.682H14.9605ZM16.642 14.4C16.7248 13.7699 16.7692 13.1354 16.775 12.5C16.7692 11.8646 16.7248 11.2301 16.642 10.6H19.8483C20.1776 11.8453 20.1776 13.1547 19.8483 14.4H16.642Z" fill="#B4B7C3"/>
</svg>
