<svg xmlns="http://www.w3.org/2000/svg" width="32" height="32" viewBox="0 0 32 32">
  <g id="Group_6836" data-name="Group 6836" transform="translate(-977 -2742)">
    <circle id="Ellipse_1637" data-name="Ellipse 1637" cx="16" cy="16" r="16" transform="translate(977 2742)" fill="#006cff" opacity="0.16"/>
    <path id="akar-icons_linkedin-fill" d="M7.943,7.575h2.971v1.48a3.409,3.409,0,0,1,3.174-1.616c3.161,0,3.911,1.694,3.911,4.8V18H14.8V12.95c0-1.77-.428-2.769-1.518-2.769-1.511,0-2.139,1.076-2.139,2.768V18h-3.2V7.575ZM2.456,17.864h3.2V7.439h-3.2V17.864ZM6.114,4.04a2.024,2.024,0,0,1-.6,1.442A2.055,2.055,0,0,1,2,4.04,2.027,2.027,0,0,1,2.6,2.6a2.07,2.07,0,0,1,2.91,0A2.031,2.031,0,0,1,6.114,4.04Z" transform="translate(983 2748)" fill="#006cff" fill-rule="evenodd"/>
  </g>
</svg>
