<svg xmlns="http://www.w3.org/2000/svg" width="32" height="32" viewBox="0 0 32 32">
  <g id="Group_6832" data-name="Group 6832" transform="translate(-569 -2736)">
    <path id="Path_5402" data-name="Path 5402" d="M16,0A16,16,0,1,1,0,16,16,16,0,0,1,16,0Z" transform="translate(569 2736)" fill="#006cff" opacity="0.16"/>
    <g id="Group_6078" data-name="Group 6078" transform="translate(445.459 2688.688)">
      <path id="Path_1193" data-name="Path 1193" d="M148.541,57.226a6.226,6.226,0,0,1-.418.62,7.292,7.292,0,0,1-1.347,1.4l-.063.129a11.974,11.974,0,0,1-.081,1.791,12.887,12.887,0,0,1-.969,3.6,12.008,12.008,0,0,1-2.014,3.182,9.728,9.728,0,0,1-5.085,3.1,10.484,10.484,0,0,1-2.055.265c-.111,0-.222,0-.332,0a9.656,9.656,0,0,1-5.547-1.743l-.089-.061a7.338,7.338,0,0,0,.866.052,6.91,6.91,0,0,0,2.824-.6,7.183,7.183,0,0,0,1.758-1.126,3.734,3.734,0,0,1-3.4-2.8,3.245,3.245,0,0,0,.684.073,3.553,3.553,0,0,0,.894-.118l.055-.03A3.642,3.642,0,0,1,131.84,63.1a4.215,4.215,0,0,1-.529-2.146,3.38,3.38,0,0,0,1.636.484,4.048,4.048,0,0,1-1.5-2.449,4.307,4.307,0,0,1,.42-2.925,10.163,10.163,0,0,0,7.564,4.225c-.02-.166-.039-.3-.059-.446a4.224,4.224,0,0,1,.563-2.638,3.553,3.553,0,0,1,2.507-1.829,3.72,3.72,0,0,1,.67-.063,3.408,3.408,0,0,1,2.547,1.189.188.188,0,0,0,.135.069.211.211,0,0,0,.058-.009,6.911,6.911,0,0,0,2.149-.9l.049-.03a3.949,3.949,0,0,1-1.566,2.2A6.618,6.618,0,0,0,148.541,57.226Z" transform="translate(0 0)" fill="#006cff"/>
    </g>
  </g>
</svg>
