<svg xmlns="http://www.w3.org/2000/svg" xmlns:xlink="http://www.w3.org/1999/xlink" width="39" height="32" viewBox="0 0 39 32">
  <defs>
    <linearGradient id="linear-gradient" x1="0.417" y1="0.032" x2="0.422" y2="1" gradientUnits="objectBoundingBox">
      <stop offset="0" stop-color="#13a9fd"/>
      <stop offset="1" stop-color="#006cff"/>
    </linearGradient>
  </defs>
  <path id="Union_58" data-name="Union 58" d="M34.039,38.467a.4.4,0,0,1-.4-.4V26.006a.4.4,0,0,1,.4-.4H38.6a.393.393,0,0,1,.3.143.4.4,0,0,1,.089.327L37,38.129a.4.4,0,0,1-.393.337Zm-7.929-1.93a.4.4,0,0,1-.139-.025L9.75,30.417a.38.38,0,0,1-.088-.046L.172,23.757a.406.406,0,0,1-.036-.636,2.3,2.3,0,0,1,1.674-.641,4.216,4.216,0,0,1,2.379.826.419.419,0,0,0,.054.036L13,28.46a.586.586,0,0,0,.3.084h3.8c.1.007.177.012.248.015l6.556-.015a.606.606,0,0,0,0-1.212H17.2a.5.5,0,0,1-.061,0,2.37,2.37,0,0,1-1.465-.951,3.509,3.509,0,0,1-.655-1.418.407.407,0,0,1,.081-.336.4.4,0,0,1,.31-.15H25.757a.4.4,0,0,1,.263.1l4.25,3.788a.6.6,0,0,0,.4.151h1.377a.4.4,0,0,1,.4.4v7.217a.4.4,0,0,1-.4.4ZM10.083,25.355,6.752,23.408a.4.4,0,0,1-.165-.186.663.663,0,0,1-.024-.074L5.822,21.77a.409.409,0,0,1-.025-.327.4.4,0,0,1,.223-.239,2.108,2.108,0,0,1,.691-.119,3.611,3.611,0,0,1,2.9,2.123c.01.016.019.035.03.053l.982,1.524a.408.408,0,0,1-.044.5.4.4,0,0,1-.489.071ZM26.871,17.11l-3.553-3.743a1.245,1.245,0,0,1-.969,0L20.9,14.994a1.4,1.4,0,0,1,.065.358,1.325,1.325,0,1,1-2.649,0,1.306,1.306,0,0,1,.323-.846L15.986,9.754l-2.229,3.873a1.29,1.29,0,0,1,.194.683,1.324,1.324,0,1,1-2.649,0,1.252,1.252,0,0,1,.162-.618L8.33,9.136H8.2A1.336,1.336,0,0,1,6.876,7.8,1.3,1.3,0,0,1,8.2,6.467,1.315,1.315,0,0,1,9.525,7.8a1.4,1.4,0,0,1-.194.716L12.4,13.009a.475.475,0,0,1,.226-.033h.129L14.887,9.2a1.28,1.28,0,0,1-.29-.846A1.335,1.335,0,0,1,15.921,7.02a1.315,1.315,0,0,1,1.325,1.335,1.432,1.432,0,0,1-.258.814l2.713,4.85a.884.884,0,0,1,.42.1l1.454-1.627a1.4,1.4,0,0,1-.064-.358,1.324,1.324,0,1,1,2.649,0,1.4,1.4,0,0,1-.065.358l3.65,3.808a.583.583,0,0,1-.033.846.678.678,0,0,1-.42.163A.521.521,0,0,1,26.871,17.11Z" transform="translate(0 -6.467)" fill="url(#linear-gradient)"/>
</svg>
