<svg xmlns="http://www.w3.org/2000/svg" xmlns:xlink="http://www.w3.org/1999/xlink" width="36.001" height="32" viewBox="0 0 36.001 32">
  <defs>
    <linearGradient id="linear-gradient" x1="0.253" y1="1" x2="0.242" gradientUnits="objectBoundingBox">
      <stop offset="0" stop-color="#006cff"/>
      <stop offset="1" stop-color="#13a9fd"/>
    </linearGradient>
  </defs>
  <path id="Union_57" data-name="Union 57" d="M19.111,23.671A8.445,8.445,0,1,1,27.555,32,8.4,8.4,0,0,1,19.111,23.671Zm6.175,2.005h2.533a2.524,2.524,0,0,0,1.463-.354,1.146,1.146,0,0,0,.5-.984,1.26,1.26,0,0,0-.2-.721,1.238,1.238,0,0,0-.556-.445c-.043-.018-.086-.034-.132-.049a1.221,1.221,0,0,0,.454-.405,1.185,1.185,0,0,0,.189-.669,1.106,1.106,0,0,0-.465-.924,2.31,2.31,0,0,0-1.39-.35H25.286Zm-11.748,1.5a.685.685,0,0,1,.224-.949l.586-.357H7.758v-6.5a.7.7,0,0,1,1.4,0v5.117h5.189l-.586-.357a.685.685,0,0,1-.226-.95.707.707,0,0,1,.962-.225l2.958,1.8a.489.489,0,0,1,0,.839l-2.958,1.8a.705.705,0,0,1-.96-.227Zm12.874-2.356V23.611h1.323a1.216,1.216,0,0,1,.669.151.513.513,0,0,1,.228.458.5.5,0,0,1-.228.458,1.271,1.271,0,0,1-.669.144Zm0-2.037V21.63h1.127a1.164,1.164,0,0,1,.634.144.48.48,0,0,1,.22.43.487.487,0,0,1-.22.437,1.169,1.169,0,0,1-.634.144ZM0,8.329A8.4,8.4,0,0,1,8.444,0a8.4,8.4,0,0,1,8.445,8.329,8.4,8.4,0,0,1-8.445,8.33A8.4,8.4,0,0,1,0,8.329Zm7.13.517H9.4L9.835,9.9h1.19l-2.192-4.9H7.714L5.53,9.9H6.692l.437-1.049h0Zm20.6,4.227V7.955H22.541l.586.357a.686.686,0,0,1,.226.95.705.705,0,0,1-.962.225l-2.958-1.8a.49.49,0,0,1,0-.839h0l2.958-1.8a.706.706,0,0,1,.961.226.685.685,0,0,1-.225.949l-.586.357h6.59v6.5a.7.7,0,0,1-1.4,0ZM9.042,7.984H7.486l.78-1.875.777,1.873v0Z" transform="translate(0.001)" fill="url(#linear-gradient)"/>
</svg>
