<svg xmlns="http://www.w3.org/2000/svg" width="32" height="32" viewBox="0 0 32 32">
  <g id="bitcoin-cash-bch-logo" transform="translate(-0.4 -0.4)">
    <circle id="Ellipse_1680" data-name="Ellipse 1680" cx="16" cy="16" r="16" transform="translate(0.4 0.4)" fill="#0ac18e"/>
    <path id="symbol_1_" d="M205.741,151.777c-.808-1.833-2.665-2.224-4.939-1.845l-.731-2.833-1.722.445.718,2.824c-.453.114-.918.212-1.38.343l-.718-2.808-1.722.445.731,2.833c-.371.106-3.477.9-3.477.9l.473,1.845s1.265-.355,1.253-.327a.916.916,0,0,1,1.188.5l2.008,7.763a.637.637,0,0,1-.5.739c.029.016-1.253.322-1.253.322l.188,2.151s3.077-.788,3.482-.89l.739,2.865,1.722-.445-.739-2.886q.71-.165,1.384-.343l.735,2.869,1.722-.445-.739-2.861c2.653-.645,4.526-2.318,4.143-4.877a3.979,3.979,0,0,0-3.331-2.951,2.845,2.845,0,0,0,.763-3.335Zm-.829,6.755c.343,2.535-3.18,2.845-4.343,3.151l-1.012-3.792C200.724,157.585,204.332,156.3,204.912,158.532Zm-2.122-5.163c.363,2.253-2.649,2.514-3.62,2.763l-.922-3.441C199.222,152.451,202.051,151.284,202.79,153.369Z" transform="translate(-184.285 -140.738)" fill="#fff"/>
  </g>
</svg>
