<svg id="g16" xmlns="http://www.w3.org/2000/svg" xmlns:xlink="http://www.w3.org/1999/xlink" width="32" height="32" viewBox="0 0 32 32">
  <defs>
    <linearGradient id="linear-gradient" x2="0" y2="1" gradientUnits="objectBoundingBox">
      <stop offset="0" stop-color="#f9aa4b"/>
      <stop offset="1" stop-color="#f7931a"/>
    </linearGradient>
  </defs>
  <path id="coin" d="M31.521,19.871A16,16,0,1,1,19.869.479,16,16,0,0,1,31.521,19.871Z" transform="translate(0 0)" fill="url(#linear-gradient)"/>
  <path id="symbol" d="M16.13,8.128c.331-2.079-1.355-3.2-3.662-3.942l.748-2.816L11.39.943l-.728,2.742c-.48-.112-.973-.218-1.464-.323L9.931.6,8.106.174,7.357,2.989c-.4-.085-.788-.169-1.167-.257l0-.009-2.519-.59L3.187,3.964s1.355.291,1.327.31c.74.173.874.633.851,1L4.513,8.479a1.586,1.586,0,0,1,.19.057L4.51,8.491,3.315,12.985a.671.671,0,0,1-.837.407c.018.025-1.328-.311-1.328-.311L.243,15.043l2.377.556c.442.1.876.213,1.3.315l-.756,2.848,1.825.427.749-2.818c.5.127.982.244,1.456.354l-.746,2.8,1.827.427.756-2.843c3.115.553,5.458.33,6.443-2.314A2.945,2.945,0,0,0,13.8,10.645,2.8,2.8,0,0,0,16.13,8.128ZM11.956,13.62c-.565,2.129-4.384.978-5.622.689l1-3.774C8.576,10.826,12.547,11.4,11.956,13.62ZM12.522,8.1c-.515,1.936-3.694.953-4.725.711l.909-3.422C9.737,5.627,13.058,6.077,12.522,8.1Z" transform="translate(7.252 5.627)" fill="#fff"/>
</svg>
