<?xml version="1.0" encoding="UTF-8" standalone="no"?>
<svg
   width="64"
   height="64"
   viewBox="0 0 64 64"
   version="1.1"
   id="svg21"
   sodipodi:docname="adv-1.svg"
   inkscape:version="1.2.1 (9c6d41e, 2022-07-14)"
   xmlns:inkscape="http://www.inkscape.org/namespaces/inkscape"
   xmlns:sodipodi="http://sodipodi.sourceforge.net/DTD/sodipodi-0.dtd"
   xmlns="http://www.w3.org/2000/svg"
   xmlns:svg="http://www.w3.org/2000/svg">
  <sodipodi:namedview
     id="namedview23"
     pagecolor="#505050"
     bordercolor="#eeeeee"
     borderopacity="1"
     inkscape:showpageshadow="0"
     inkscape:pageopacity="0"
     inkscape:pagecheckerboard="0"
     inkscape:deskcolor="#505050"
     showgrid="false"
     inkscape:zoom="3.6875"
     inkscape:cx="-7.5932203"
     inkscape:cy="32"
     inkscape:window-width="1309"
     inkscape:window-height="456"
     inkscape:window-x="0"
     inkscape:window-y="25"
     inkscape:window-maximized="0"
     inkscape:current-layer="Group_7127" />
  <defs
     id="defs12">
    <linearGradient
       id="linear-gradient"
       x1="0.5"
       x2="0.5"
       y2="1"
       gradientUnits="objectBoundingBox">
      <stop
         offset="0"
         stop-color="#13a9fd"
         id="stop2" />
      <stop
         offset="1"
         stop-color="#006cff"
         id="stop4" />
    </linearGradient>
    <linearGradient
       id="linear-gradient-2"
       x1="20"
       x2="20"
       y2="40"
       gradientUnits="userSpaceOnUse"
       y1="0">
      <stop
         offset="0"
         stop-color="#13a9fd"
         id="stop7" />
      <stop
         offset="1"
         stop-color="#0073c6"
         id="stop9" />
    </linearGradient>
  </defs>
  <g
     id="Group_7127"
     data-name="Group 7127"
     transform="translate(-88 -1315)">
    <g
       id="Group_7120"
       data-name="Group 7120"
       transform="translate(104.358 1329.127)">
      <path
         id="noun-liquidity-4574047"
         d="M185.495,79.685a1.125,1.125,0,0,1-1.109,1.012,1.166,1.166,0,0,1-.124-.007,1.132,1.132,0,0,1-.989-1.254,13.808,13.808,0,0,0-1.047-6.962,13.566,13.566,0,0,0-4.33-5.5,13.252,13.252,0,0,0-6.453-2.558l-1.589-.178h0a1.126,1.126,0,0,1-.98-.94,1.141,1.141,0,0,1,.622-1.215l3.882-1.878h0a1.11,1.11,0,0,1,1.489.538,1.144,1.144,0,0,1-.529,1.514l-.574.277a15.622,15.622,0,0,1,9.027,6.338,16.089,16.089,0,0,1,2.7,10.81Zm-15.4,11.958-1.589-.179a13.25,13.25,0,0,1-6.453-2.558,13.564,13.564,0,0,1-4.33-5.5,13.806,13.806,0,0,1-1.047-6.962,1.151,1.151,0,0,0-.238-.836,1.105,1.105,0,0,0-1.572-.176,1.143,1.143,0,0,0-.411.763,16.088,16.088,0,0,0,2.7,10.81,15.624,15.624,0,0,0,9.027,6.338l-.574.277a1.145,1.145,0,0,0-.529,1.515,1.109,1.109,0,0,0,1.489.538l3.882-1.878a1.142,1.142,0,0,0,.622-1.215,1.126,1.126,0,0,0-.98-.94Z"
         transform="translate(-154.36 -60.097)"
         fill="url(#linear-gradient)" />
      <path
         id="Exclusion_2"
         data-name="Exclusion 2"
         d="M11.153,22.306A11.156,11.156,0,0,1,6.812.876,11.156,11.156,0,0,1,15.495,21.43,11.084,11.084,0,0,1,11.153,22.306ZM7.988,13.583a.507.507,0,0,0-.358.159.64.64,0,0,0-.12.358A3,3,0,0,0,10.1,16.73v1.155a.485.485,0,0,0,.478.478h1.314a.485.485,0,0,0,.478-.478V16.69a3.449,3.449,0,0,0,2.749-2.948,3.436,3.436,0,0,0-.876-2.589,3.355,3.355,0,0,0-2.51-1.115h-1A1.089,1.089,0,0,1,9.9,9.68,1.162,1.162,0,0,1,9.621,8.8,1.013,1.013,0,0,1,10.01,8.1a1.3,1.3,0,0,1,.807-.289h1.2a.728.728,0,0,1,.717.558.465.465,0,0,0,.438.358h1.354a.5.5,0,0,0,.358-.159A.645.645,0,0,0,15,8.206,3.006,3.006,0,0,0,12.41,5.577V4.461a.485.485,0,0,0-.478-.478H10.617a.485.485,0,0,0-.478.478V5.616A3.3,3.3,0,0,0,7.391,9.241,3.517,3.517,0,0,0,10.9,12.269h.876a1.089,1.089,0,0,1,.836.358,1.161,1.161,0,0,1,.279.876,1.012,1.012,0,0,1-.388.707,1.3,1.3,0,0,1-.807.289H10.5a.729.729,0,0,1-.717-.558.464.464,0,0,0-.438-.358Z"
         transform="translate(4.846 6.753)"
         fill="url(#linear-gradient)" />
    </g>
  </g>
</svg>
