<?xml version="1.0" encoding="UTF-8" standalone="no"?>
<svg
   width="64"
   height="64"
   viewBox="0 0 64 64"
   version="1.1"
   id="svg22009"
   sodipodi:docname="adv-2.svg"
   inkscape:version="1.2.1 (9c6d41e, 2022-07-14)"
   xmlns:inkscape="http://www.inkscape.org/namespaces/inkscape"
   xmlns:sodipodi="http://sodipodi.sourceforge.net/DTD/sodipodi-0.dtd"
   xmlns="http://www.w3.org/2000/svg"
   xmlns:svg="http://www.w3.org/2000/svg">
  <sodipodi:namedview
     id="namedview22011"
     pagecolor="#505050"
     bordercolor="#eeeeee"
     borderopacity="1"
     inkscape:showpageshadow="0"
     inkscape:pageopacity="0"
     inkscape:pagecheckerboard="0"
     inkscape:deskcolor="#505050"
     showgrid="false"
     inkscape:zoom="3.6875"
     inkscape:cx="-47.457627"
     inkscape:cy="32"
     inkscape:window-width="1309"
     inkscape:window-height="456"
     inkscape:window-x="0"
     inkscape:window-y="295"
     inkscape:window-maximized="0"
     inkscape:current-layer="Group_6056" />
  <defs
     id="defs22002">
    <linearGradient
       id="linear-gradient"
       x1="0.5"
       x2="0.5"
       y2="1"
       gradientUnits="objectBoundingBox">
      <stop
         offset="0"
         stop-color="#13a9fd"
         id="stop21992" />
      <stop
         offset="1"
         stop-color="#0073c6"
         id="stop21994" />
    </linearGradient>
    <linearGradient
       id="linear-gradient-2"
       x1="0.5"
       x2="0.5"
       y2="1"
       gradientUnits="objectBoundingBox">
      <stop
         offset="0"
         stop-color="#13a9fd"
         id="stop21997" />
      <stop
         offset="1"
         stop-color="#006cff"
         id="stop21999" />
    </linearGradient>
  </defs>
  <g
     id="Group_7128"
     data-name="Group 7128"
     transform="translate(-88 -1458)">
    <g
       id="Group_6056"
       data-name="Group 6056"
       transform="translate(88 1458)" />
    <path
       id="Path_5840"
       data-name="Path 5840"
       d="M82.193,25.9a1.68,1.68,0,0,1,1.328,1.591.483.483,0,0,0,.4.443,1.713,1.713,0,0,1,1.4,2,1.544,1.544,0,0,1-.055.235.49.49,0,0,0,.273.624c.6.253,1.364.588,1.792.769.928.371,2.374-.786,1.164-1.456l-1.937-.94c-.5-.136-.473-.769.155-.624a4.222,4.222,0,0,1,.819.389c.691.353,1.273.7,1.856.977,1.392.687,2.592-.832,1.492-1.465-.5-.289-1.155-.651-1.519-.85-.346-.2-.709-.4-1.055-.606s-.964-.389-.691-.823c.282-.289,1.01.307,1.592.633.491.28,1.837.977,2.338,1.266,1.392.85,2.692-.289,1.428-1.428-.173-.19-3.747-2.324-4.166-2.513-.491-.38.027-.814.382-.579l5.175,3.4c1.21.488,2.347-.931,1.392-1.826a63.391,63.391,0,0,0-8.34-5.732,16.228,16.228,0,0,0-1.665-.868c-1.128-.343-2.447,1.79-3.165,2.369a2.258,2.258,0,0,1-2.847-.47c-.427-.7.573-1.98,1.292-2.911a.5.5,0,0,0,.064-.488.489.489,0,0,0-.391-.307c-.291-.045-.582-.09-.873-.163a2.981,2.981,0,0,1-.946-.425.456.456,0,0,0-.373-.054.443.443,0,0,0-.309.226c-.746,1.22-2.811,4.882-3.393,6.03a.477.477,0,0,0,.082.561c.291.307.528.633.791.967a.242.242,0,0,0,.327.054,1.78,1.78,0,0,1,2.656.461.249.249,0,0,0,.209.127.26.26,0,0,0,.218-.108l.155-.226a1.575,1.575,0,0,1,2.565,1.275.5.5,0,0,0,.382.47ZM85.995,0A6.455,6.455,0,1,1,79.5,6.455,6.479,6.479,0,0,1,85.995,0Zm-2.41,6.41,1.574,1.112,2.629-3.806a.306.306,0,0,1,.418-.081l.846.57a.319.319,0,0,1,.127.2.287.287,0,0,1-.046.226L86.15,8.95a.968.968,0,0,1-.664.425.978.978,0,0,1-.755-.172L82.639,7.721a.292.292,0,0,1-.073-.416l.591-.832a.288.288,0,0,1,.2-.118.264.264,0,0,1,.227.054Zm17.445,15.714-1.855,1.139a.5.5,0,0,1-.691-.181l-4.22-7.288a.489.489,0,0,1,.173-.669l6.785-4.15a.491.491,0,0,1,.509-.009.477.477,0,0,1,.255.434v9.032a1.928,1.928,0,0,1-.955,1.691ZM76.708,24.176A2.772,2.772,0,0,0,75.59,25.7a1.113,1.113,0,0,0,1.383,1.121A3.644,3.644,0,0,0,78.2,25.189,1.048,1.048,0,0,0,76.708,24.176Zm6.2,4.774L81.956,30.3a1.006,1.006,0,0,0,1.437,1.338,9.356,9.356,0,0,0,1.3-1.7c.346-.949-1.028-2.052-1.783-.985Zm-1.428-2.387a13.339,13.339,0,0,0-1.755,2.242,1.024,1.024,0,0,0,1.328,1.528,19.861,19.861,0,0,0,1.583-2.043,1.064,1.064,0,0,0-1.155-1.727Zm-1.665-2.125a16.926,16.926,0,0,0-2.328,2.875,1.052,1.052,0,0,0,1.455,1.5,24.852,24.852,0,0,0,1.692-2.278c.273-.371.737-.786.482-1.438a1.074,1.074,0,0,0-1.3-.66Zm15.917-.524c.4-.343.991-.886,1.337-1.239a.491.491,0,0,0,.082-.6l-2.592-4.611c-.209-.353-.546-.886-.764-1.32a.5.5,0,0,0-.546-.262c-3.311.669-5.084-2.242-8.886-1.094-.919.28-3.447,3.562-4.066,4.918a.489.489,0,0,0,.145.6c2.41,1.871,2.838-3.806,6.276-1.962A54.312,54.312,0,0,1,95.1,23.923a.509.509,0,0,0,.637-.009ZM70,20.623V11.582a.494.494,0,0,1,.764-.416l6.785,4.15a.485.485,0,0,1,.173.669l-4.22,7.288a.506.506,0,0,1-.309.235.475.475,0,0,1-.382-.063l-1.856-1.13a1.938,1.938,0,0,1-.955-1.691Z"
       transform="translate(34.357 1474.362)"
       fill-rule="evenodd"
       fill="url(#linear-gradient-2)" />
  </g>
</svg>
