<?xml version="1.0" encoding="UTF-8" standalone="no"?>
<svg
   width="64"
   height="64"
   viewBox="0 0 64 64"
   version="1.1"
   id="svg351"
   sodipodi:docname="adv-4.svg"
   inkscape:version="1.2.1 (9c6d41e, 2022-07-14)"
   xmlns:inkscape="http://www.inkscape.org/namespaces/inkscape"
   xmlns:sodipodi="http://sodipodi.sourceforge.net/DTD/sodipodi-0.dtd"
   xmlns="http://www.w3.org/2000/svg"
   xmlns:svg="http://www.w3.org/2000/svg">
  <sodipodi:namedview
     id="namedview353"
     pagecolor="#505050"
     bordercolor="#eeeeee"
     borderopacity="1"
     inkscape:showpageshadow="0"
     inkscape:pageopacity="0"
     inkscape:pagecheckerboard="0"
     inkscape:deskcolor="#505050"
     showgrid="false"
     inkscape:zoom="3.6875"
     inkscape:cx="-7.5932203"
     inkscape:cy="32"
     inkscape:window-width="1309"
     inkscape:window-height="456"
     inkscape:window-x="0"
     inkscape:window-y="25"
     inkscape:window-maximized="0"
     inkscape:current-layer="Group_7130" />
  <defs
     id="defs344">
    <linearGradient
       id="linear-gradient"
       x1="0.5"
       x2="0.5"
       y2="1"
       gradientUnits="objectBoundingBox">
      <stop
         offset="0"
         stop-color="#13a9fd"
         id="stop334" />
      <stop
         offset="1"
         stop-color="#0073c6"
         id="stop336" />
    </linearGradient>
    <linearGradient
       id="linear-gradient-2"
       x1="0.5"
       x2="0.5"
       y2="1"
       gradientUnits="objectBoundingBox">
      <stop
         offset="0"
         stop-color="#13a9fd"
         id="stop339" />
      <stop
         offset="1"
         stop-color="#006cff"
         id="stop341" />
    </linearGradient>
  </defs>
  <g
     id="Group_7130"
     data-name="Group 7130"
     transform="translate(-88 -1717)">
    <path
       id="Union_50"
       data-name="Union 50"
       d="M4.992,27.805a17.618,17.618,0,0,0-4.064-.84A1.028,1.028,0,0,1,0,25.938l.1-6.222a1.1,1.1,0,0,1,.9-1s3.424.062,5.376-2.271a8.333,8.333,0,0,1,4.7-2.831v5.413a2.386,2.386,0,0,0,3.3,2.178l3.9-1.525a2.04,2.04,0,0,1,2.591,1.09h0a1.921,1.921,0,0,1-1.12,2.52S9.119,27.4,8.1,27.774A5.654,5.654,0,0,1,6.385,28,4.338,4.338,0,0,1,4.992,27.805ZM15.76,26.093l4.192-1.618a4.251,4.251,0,0,0,1.088-.684h1.28a2.553,2.553,0,0,0,1.92-.84v.777a1.575,1.575,0,0,1-1.568,1.556,1.542,1.542,0,0,1-1.152-.466,1.527,1.527,0,0,1-1.536,1.555,1.672,1.672,0,0,1-1.152-.466,1.565,1.565,0,0,1-1.5,1.182H17.1l-.064,0A1.337,1.337,0,0,1,15.76,26.093Zm6.075-3.4a3.028,3.028,0,0,0-.032-2.3,3.118,3.118,0,0,0-1.44-1.618,3.2,3.2,0,0,0-2.816-.187l-3.9,1.525a1.2,1.2,0,0,1-.96-.063,1.1,1.1,0,0,1-.576-.9V4.28H23.755V21.328a1.347,1.347,0,0,1-1.376,1.337V22.7Zm-6.273-9.551c-.064.031-.064.093-.064.155a1.919,1.919,0,0,0,1.76,1.68v.84a.216.216,0,0,0,.225.218h.9a.216.216,0,0,0,.225-.218v-.84a2.143,2.143,0,0,0-.352-4.262H17.58a.818.818,0,0,1-.641-.28.728.728,0,0,1-.224-.622.89.89,0,0,1,.9-.746h.8a.575.575,0,0,1,.544.435.232.232,0,0,0,.224.187h.9c.1,0,.16,0,.192-.062.064-.031.064-.093.064-.155a1.918,1.918,0,0,0-1.76-1.68v-.84a.216.216,0,0,0-.224-.218h-.9a.216.216,0,0,0-.224.218v.84a2.15,2.15,0,0,0-1.856,2.333,2.272,2.272,0,0,0,2.3,1.929h.576a.816.816,0,0,1,.64.28.724.724,0,0,1,.224.622.89.89,0,0,1-.9.747h-.8a.574.574,0,0,1-.544-.436.233.233,0,0,0-.225-.187h-.9C15.659,13.084,15.595,13.084,15.563,13.146Zm9.315-3.19V6.907h1.535a.565.565,0,0,0,.576-.56V3.609a.566.566,0,0,0-.576-.56H9.134a.565.565,0,0,0-.576.56V6.347a.566.566,0,0,0,.576.56h1.536V9.956H6.318a.714.714,0,0,1-.736-.716V.716A.714.714,0,0,1,6.318,0H29.294a.67.67,0,0,1,.7.716V9.24a.714.714,0,0,1-.736.716Z"
       transform="translate(105 1735)"
       fill="url(#linear-gradient-2)" />
  </g>
</svg>
