<svg xmlns="http://www.w3.org/2000/svg" xmlns:xlink="http://www.w3.org/1999/xlink" width="64" height="64" viewBox="0 0 64 64">
  <defs>
    <linearGradient id="linear-gradient" x1="0.5" x2="0.5" y2="1" gradientUnits="objectBoundingBox">
      <stop offset="0" stop-color="#13a9fd"/>
      <stop offset="1" stop-color="#0073c6"/>
    </linearGradient>
    <linearGradient id="linear-gradient-2" x1="0.5" x2="0.5" y2="1" gradientUnits="objectBoundingBox">
      <stop offset="0" stop-color="#13a9fd"/>
      <stop offset="1" stop-color="#006cff"/>
    </linearGradient>
  </defs>
  <g id="Group_7130" data-name="Group 7130" transform="translate(-88 -1717)">
    <g id="Group_6056" data-name="Group 6056" transform="translate(88 1717)">
      <circle id="Ellipse_607" data-name="Ellipse 607" cx="20.5" cy="20.5" r="20.5" transform="translate(1 1)" fill="url(#linear-gradient)"/>
      <rect id="Rectangle_4843" data-name="Rectangle 4843" width="64" height="64" rx="8" transform="translate(0 0)" fill="#1b337b"/>
    </g>
    <path id="Union_50" data-name="Union 50" d="M4.992,27.805a17.618,17.618,0,0,0-4.064-.84A1.028,1.028,0,0,1,0,25.938l.1-6.222a1.1,1.1,0,0,1,.9-1s3.424.062,5.376-2.271a8.333,8.333,0,0,1,4.7-2.831v5.413a2.386,2.386,0,0,0,3.3,2.178l3.9-1.525a2.04,2.04,0,0,1,2.591,1.09h0a1.921,1.921,0,0,1-1.12,2.52S9.119,27.4,8.1,27.774A5.654,5.654,0,0,1,6.385,28,4.338,4.338,0,0,1,4.992,27.805ZM15.76,26.093l4.192-1.618a4.251,4.251,0,0,0,1.088-.684h1.28a2.553,2.553,0,0,0,1.92-.84v.777a1.575,1.575,0,0,1-1.568,1.556,1.542,1.542,0,0,1-1.152-.466,1.527,1.527,0,0,1-1.536,1.555,1.672,1.672,0,0,1-1.152-.466,1.565,1.565,0,0,1-1.5,1.182H17.1l-.064,0A1.337,1.337,0,0,1,15.76,26.093Zm6.075-3.4a3.028,3.028,0,0,0-.032-2.3,3.118,3.118,0,0,0-1.44-1.618,3.2,3.2,0,0,0-2.816-.187l-3.9,1.525a1.2,1.2,0,0,1-.96-.063,1.1,1.1,0,0,1-.576-.9V4.28H23.755V21.328a1.347,1.347,0,0,1-1.376,1.337V22.7Zm-6.273-9.551c-.064.031-.064.093-.064.155a1.919,1.919,0,0,0,1.76,1.68v.84a.216.216,0,0,0,.225.218h.9a.216.216,0,0,0,.225-.218v-.84a2.143,2.143,0,0,0-.352-4.262H17.58a.818.818,0,0,1-.641-.28.728.728,0,0,1-.224-.622.89.89,0,0,1,.9-.746h.8a.575.575,0,0,1,.544.435.232.232,0,0,0,.224.187h.9c.1,0,.16,0,.192-.062.064-.031.064-.093.064-.155a1.918,1.918,0,0,0-1.76-1.68v-.84a.216.216,0,0,0-.224-.218h-.9a.216.216,0,0,0-.224.218v.84a2.15,2.15,0,0,0-1.856,2.333,2.272,2.272,0,0,0,2.3,1.929h.576a.816.816,0,0,1,.64.28.724.724,0,0,1,.224.622.89.89,0,0,1-.9.747h-.8a.574.574,0,0,1-.544-.436.233.233,0,0,0-.225-.187h-.9C15.659,13.084,15.595,13.084,15.563,13.146Zm9.315-3.19V6.907h1.535a.565.565,0,0,0,.576-.56V3.609a.566.566,0,0,0-.576-.56H9.134a.565.565,0,0,0-.576.56V6.347a.566.566,0,0,0,.576.56h1.536V9.956H6.318a.714.714,0,0,1-.736-.716V.716A.714.714,0,0,1,6.318,0H29.294a.67.67,0,0,1,.7.716V9.24a.714.714,0,0,1-.736.716Z" transform="translate(105 1735)" fill="url(#linear-gradient-2)"/>
  </g>
</svg>
