<svg id="tsagaan_sar-07" data-name="tsagaan sar-07" xmlns="http://www.w3.org/2000/svg" xmlns:xlink="http://www.w3.org/1999/xlink" width="115.452" height="40" viewBox="0 0 115.452 40">
  <defs>
    <linearGradient id="linear-gradient" y1="0.5" x2="1" y2="0.5" gradientUnits="objectBoundingBox">
      <stop offset="0" stop-color="#006cff"/>
      <stop offset="0.49" stop-color="#13a9fd"/>
      <stop offset="1" stop-color="#006cff"/>
    </linearGradient>
  </defs>
  <path id="Path_6212" data-name="Path 6212" d="M13,41.764l.123.069.123.069,2.909,1.686V28.864l-2.909,1.678-.123.069v7.72L13,38.262l-.123-.069-.123-.077L9.844,36.437l-.131-.069L9.59,36.3l-.123-.077L6.558,34.544l-.123-.069-.123-.069-.123-.077L3.279,32.651l-.123-.069L3.033,32.5V20.859l.123.069.123.077.123.069,2.909,1.678.123.069.123.077.123.069L9.59,24.646l.123.077.131-.077,2.909-1.678L9.844,21.29l-.131-.077-.123-.069-.123-.069L6.558,19.4l-.123-.077-.123-.069-.123-.069L3.279,17.5l-.123-.077-.123-.069-.123-.069L0,15.61V34.259l.123.069,2.909,1.686.123.069.123.069.123.069,2.909,1.686.123.069.123.069.123.069L9.59,39.8l.123.069.131.069.123.069,2.909,1.686Z" transform="translate(0 -3.595)" fill="#fff"/>
  <path id="Path_6213" data-name="Path 6213" d="M5.123,11.076l.123.069.123.077L8.278,12.9l.123.069.123.077.123.069,2.909,1.678.123.069.123.077.123.069,2.909,1.678v-3.5l-.123-.069L11.8,11.437l-.123-.077-.123-.069-.123-.069L8.525,9.544,8.4,9.467,8.278,9.4l-.123-.069.123-.077L8.4,9.182l.123-.069,2.909-1.678.123-.077.123-.069L11.8,7.22l2.909-1.678.123-.077.123-.069.123-.069,2.909-1.678.123-.077.123-.069.131.069.123.077L21.4,5.326l.123.069.123.069.123.077L24.68,7.22l.123.069.123.069.123.077,2.909,1.678.123.069.123.069.123.077-.123.069-.123.069-.123.077-2.909,1.678-.123.069-.123.069-.123.077-2.909,1.678-.123.069v3.5l2.909-1.678.123-.069.123-.077.123-.069,2.909-1.678.123-.069.123-.077.123-.069,2.909-1.678.123-.069.123-.077.123-.069,2.909-1.678L31.484,7.643l-.123-.069L31.238,7.5l-.123-.069L28.205,5.749l-.123-.069-.123-.069-.123-.069L24.926,3.856,24.8,3.787l-.123-.069-.123-.069L21.648,1.963l-.123-.069L21.4,1.824l-.123-.069L18.369.069,18.238,0l-.123.069L15.205,1.755l-.123.069-.123.069-.123.069L11.926,3.648l-.123.069-.123.069-.123.069L8.648,5.542l-.123.069L8.4,5.68l-.123.069L5.369,7.435,5.246,7.5l-.123.069L5,7.643,2.09,9.328,5,11.006Z" transform="translate(-0.481)" fill="#fff"/>
  <path id="Path_6214" data-name="Path 6214" d="M38.283,17.357l-.123.069-.123.077-2.909,1.678L35,19.251l-.123.069-.123.077-2.909,1.678-.131.069-.123.069-.123.077-2.909,1.678,2.909,1.678.123.077.123-.077,2.917-1.678.123-.069.123-.077L35,22.753l2.909-1.678.123-.069.123-.077.123-.069V32.5l-.123.077-.123.069-2.909,1.678L35,34.406l-.123.069-.123.069-2.909,1.678-.131.077-.123.069-.123.069-2.909,1.678-.123.077-.123.069-.123.069v-7.72l-.123-.069L25.16,28.864V43.588L28.069,41.9l.123-.069.123-.069.123-.069,2.909-1.686.123-.069.123-.069.123-.069,2.917-1.686.123-.069.123-.069L35,37.908l2.909-1.686.123-.069.123-.069.123-.069,2.909-1.686.123-.069V15.61l-2.909,1.678Z" transform="translate(-5.795 -3.595)" fill="#fff"/>
  <rect id="Rectangle_5578" data-name="Rectangle 5578" width="8.251" height="2.525" transform="translate(91.792 15.794)" fill="#fff"/>
  <path id="Path_6215" data-name="Path 6215" d="M99.37,23.148h3.194v8h2.755v-8h3.194V20.4H99.37Z" transform="translate(-22.887 -4.699)" fill="#fff"/>
  <path id="Path_6216" data-name="Path 6216" d="M122.015,29.585V28.276h5.6V25.59H119.26v6.75h8.351V29.654h-5.6Z" transform="translate(-27.468 -5.894)" fill="#fff"/>
  <path id="Path_6217" data-name="Path 6217" d="M136.55,33.144h3.109l1.185-1.809-1.532-2.255Z" transform="translate(-31.45 -6.698)" fill="#fff"/>
  <path id="Path_6218" data-name="Path 6218" d="M141.7,23.471h0l-.185-.262L139.626,20.4H136.57l7.312,10.745h3.025Z" transform="translate(-31.455 -4.699)" fill="#fff"/>
  <path id="Path_6219" data-name="Path 6219" d="M148.57,20.52H145.7l-1.139,1.67,1.462,2.147Z" transform="translate(-33.295 -4.726)" fill="#fff"/>
  <path id="Path_6220" data-name="Path 6220" d="M64.965,20.4,60.77,31.145h2.94l2.832-7.666,1.786,4.849H66.473l-1.031,2.817h6.873L68.12,20.4Z" transform="translate(-13.997 -4.699)" fill="#fff"/>
  <path id="Path_6221" data-name="Path 6221" d="M90.232,28.4H89.34v-.008H86.145V20.4H83.39V31.145h7.758Z" transform="translate(-19.207 -4.699)" fill="#fff"/>
  <path id="Path_6222" data-name="Path 6222" d="M68.275,43.09c-1.316-.762-4.456-.031-3.756,1.778s3.756,1.432,4.787,1.362,3.933-.546,5.288,0a2.963,2.963,0,0,1,1.7,1.432,5.253,5.253,0,0,1,1.255.092c.369.123,1.155.531.216,1.224a2.319,2.319,0,0,1-2.232,0,4.046,4.046,0,0,1-2.317.462,5.769,5.769,0,0,1-2.517-.716s3.564.854,4.125-.616-1.416-2.017-4.187-1.816-4.887.87-7.135-1.239S65.089,41.5,66.836,42.1s2.671,1.578,4.133,2.055,3.687-.377,5.234-1.178,4.51-2.378,7.5-1.809,3.086,1.917,2.455,2.448-2.271.092-3.771.377-2.471,1.439-1.532,2.517,4.564,1.7,7.5.885c2.24-.623,3.44-1.678,5.318-2.117a11.037,11.037,0,0,1,3.895,0,.073.073,0,0,1,.054.015h0c2.032.493,3.033,1.485,5.242,2.1,2.932.816,6.55.2,7.481-.877s-.031-2.232-1.532-2.517-3.133.162-3.771-.377-.531-1.886,2.448-2.448,5.942,1,7.5,1.809,3.771,1.655,5.234,1.178,2.386-1.455,4.133-2.055,5.588.839,3.333,2.948-4.372,1.439-7.135,1.239-4.741.346-4.187,1.816,4.125.616,4.125.616a5.894,5.894,0,0,1-2.517.716,4.123,4.123,0,0,1-2.317-.462,2.319,2.319,0,0,1-2.232,0c-.931-.693-.146-1.1.216-1.224a5.253,5.253,0,0,1,1.255-.092,2.963,2.963,0,0,1,1.7-1.432c1.355-.546,4.256-.069,5.288,0s4.087.454,4.787-1.362-2.432-2.54-3.756-1.778c-.562.323-1.039.531-1.532.862a5.75,5.75,0,0,1-5.026.277c-1.37-.439-3.056-1.77-4.6-2.448a6.209,6.209,0,0,0-3.271-.5c-.785.023-2.555.739-2.586,1.47s1.054.808,1.432.793,2.817-.139,3.972.5a1.617,1.617,0,0,1,.654,1.97s.3.069.531.146.585.246.631.454.015,1.2-2.1,1.755a4.684,4.684,0,0,1-3.056.077,10.135,10.135,0,0,1-3.256.331,7.555,7.555,0,0,1-3.617-1.17,14.835,14.835,0,0,0-3.517-1.893,6.852,6.852,0,0,0-1.986-.308,6.587,6.587,0,0,0-1.986.308,14.835,14.835,0,0,0-3.517,1.893,7.555,7.555,0,0,1-3.617,1.17,9.926,9.926,0,0,1-3.256-.331,4.674,4.674,0,0,1-3.056-.077c-2.117-.554-2.155-1.555-2.1-1.755s.4-.377.631-.454.531-.146.531-.146a1.617,1.617,0,0,1,.654-1.97c1.147-.631,3.587-.508,3.972-.5s1.47-.054,1.432-.793-1.8-1.455-2.586-1.47a6.131,6.131,0,0,0-3.271.5c-1.555.677-3.233,2.009-4.6,2.448a7.777,7.777,0,0,1-3.656.269,7.708,7.708,0,0,1-1.37-.546c-.485-.331-.97-.539-1.532-.862h0Z" transform="translate(-14.467 -9.455)" fill="#13a9fd" fill-rule="evenodd"/>
  <path id="Path_6223" data-name="Path 6223" d="M68,46.257a13.54,13.54,0,0,1-5.011-.115c-1.947-.616-2.4-1.324-2.155-2.24a2.062,2.062,0,0,1,.708-1.2s-1.031-.562-.639-1.524A2.384,2.384,0,0,1,63.295,40a2.355,2.355,0,0,1,1.609.623c.239.246.254.346.254.346a5.976,5.976,0,0,1,2.586-.454,1.6,1.6,0,0,1,1.516,1.693,5.455,5.455,0,0,1-.092,1.1,15.509,15.509,0,0,0-2.8-1.447c-1.755-.6-5.588.839-3.333,2.948a5.69,5.69,0,0,0,4.98,1.439h0Zm54.224,0a13.54,13.54,0,0,0,5.011-.115c1.947-.616,2.4-1.324,2.155-2.24a2.062,2.062,0,0,0-.708-1.2s1.031-.562.639-1.524A2.384,2.384,0,0,0,126.924,40a2.355,2.355,0,0,0-1.609.623c-.239.246-.254.346-.254.346a5.976,5.976,0,0,0-2.586-.454,1.6,1.6,0,0,0-1.516,1.693,5.456,5.456,0,0,0,.092,1.1,15.509,15.509,0,0,1,2.8-1.447c1.755-.6,5.588.839,3.333,2.948a5.69,5.69,0,0,1-4.98,1.439h0ZM69.137,43.578c.069.038.131.085.2.131a7.708,7.708,0,0,0,1.37.546,7.777,7.777,0,0,0,3.656-.269c1.37-.439,3.056-1.77,4.6-2.448A8.28,8.28,0,0,1,79.9,41.2c-.754.254-2.017,1.693-3.056,2.586a6.5,6.5,0,0,1-4.972,1.578c-2.586-.077-2.717-1.778-2.717-1.778h0ZM80,41.161c.162-.038.308-.069.454-.092-.1.023-.246.054-.454.092Zm41.085,2.417c-.069.038-.131.085-.2.131a5.75,5.75,0,0,1-5.026.277c-1.37-.439-3.056-1.77-4.6-2.448a8.28,8.28,0,0,0-.931-.339c.754.254,2.017,1.693,3.056,2.586a6.5,6.5,0,0,0,4.972,1.578c2.586-.077,2.717-1.778,2.717-1.778h0Zm-10.868-2.417c-.162-.038-.308-.069-.454-.092.1.023.246.054.454.092Zm-28.263-.354h0a6.435,6.435,0,0,1,1.262.123c2.986.57,3.086,1.917,2.455,2.448s-2.271.092-3.771.377-2.471,1.439-1.532,2.517,4.564,1.7,7.5.885c2.24-.623,3.44-1.678,5.318-2.117a10.647,10.647,0,0,1,1.316-.154h0a11.792,11.792,0,0,1,1.278,0h0a9.132,9.132,0,0,1,1.316.154c1.878.439,3.071,1.493,5.318,2.117,2.932.816,6.565.192,7.5-.885s-.031-2.232-1.532-2.517-3.133.162-3.771-.377-.531-1.886,2.455-2.448a7.874,7.874,0,0,1,1.262-.123h0a11.93,11.93,0,0,0-4.218.739c-1.632.762-2.471,1.432-1.97,2.132a1.13,1.13,0,0,0,1.054.593,7.475,7.475,0,0,1,1.3-.4c.6-.1,1.632-.208,2.055.739s-.585,1.8-2.217,1.94a15.357,15.357,0,0,1-5.757-1.339,11.31,11.31,0,0,0-6.85,0,15.436,15.436,0,0,1-5.757,1.339c-1.632-.139-2.632-1-2.217-1.94s1.455-.839,2.055-.739a6.805,6.805,0,0,1,1.3.4s.554.115,1.054-.593-.331-1.37-1.97-2.132a11.929,11.929,0,0,0-4.218-.739h0Z" transform="translate(-13.997 -9.212)" fill-rule="evenodd" fill="url(#linear-gradient)"/>
</svg>
