<svg xmlns="http://www.w3.org/2000/svg" width="32" height="32" viewBox="0 0 32 32">
  <g id="Group_6834" data-name="Group 6834" transform="translate(-741 -2738)">
    <circle id="Ellipse_1635" data-name="Ellipse 1635" cx="16" cy="16" r="16" transform="translate(741 2738)" fill="#006cff" opacity="0.16"/>
    <path id="Icon_awesome-telegram-plane" data-name="Icon awesome-telegram-plane" d="M17.95,5.985,15.234,19.562c-.2.958-.739,1.2-1.5.745L9.6,17.075l-2,2.036a1.021,1.021,0,0,1-.832.43l.3-4.468,7.671-7.347c.334-.315-.072-.49-.518-.175L4.734,13.881.651,12.526c-.888-.294-.9-.941.185-1.393L16.8,4.613C17.544,4.319,18.191,4.788,17.95,5.985Z" transform="translate(746.999 2742.472)" fill="#006cff"/>
  </g>
</svg>
