<svg xmlns="http://www.w3.org/2000/svg" width="32" height="32" viewBox="0 0 32 32">
  <g id="Group_6835" data-name="Group 6835" transform="translate(-843 -2736)">
    <circle id="Ellipse_1636" data-name="Ellipse 1636" cx="16" cy="16" r="16" transform="translate(843 2736)" fill="#006cff" opacity="0.16"/>
    <g id="Group_6081" data-name="Group 6081" transform="translate(646.104 2545.106)">
      <path id="Path_1194" data-name="Path 1194" d="M220.491,203.321c.573,1.483.55,6.883-.139,8.311a1.905,1.905,0,0,1-.871.861c-.539.273-3.669.4-6.736.4a38.292,38.292,0,0,1-6.24-.317,1.839,1.839,0,0,1-1.222-1.172c-.517-1.434-.632-7.438.4-8.622a2.01,2.01,0,0,1,1.342-.7c1.23-.13,3.6-.194,5.945-.194a40.839,40.839,0,0,1,6.322.292A1.871,1.871,0,0,1,220.491,203.321Zm-9.581,6.444c1.661-.848,3.315-1.684,4.988-2.532-1.66-.854-3.3-1.7-4.948-2.545-.013,1.7-.026,3.375-.039,5.077" transform="translate(0 0)" fill="#006cff"/>
    </g>
  </g>
</svg>
